<?xml version="1.0" standalone="no"?>
<!DOCTYPE svg PUBLIC "-//W3C//DTD SVG 20010904//EN"
 "http://www.w3.org/TR/2001/REC-SVG-20010904/DTD/svg10.dtd">
<svg version="1.0" xmlns="http://www.w3.org/2000/svg"
 width="2300.000000pt" height="2300.000000pt" viewBox="0 0 2300.000000 2300.000000"
 preserveAspectRatio="xMidYMid meet">
<metadata>
Created by potrace 1.11, written by Peter Selinger 2001-2013
</metadata>
<g transform="translate(0.000000,2300.000000) scale(0.100000,-0.100000)"
fill="#000000" stroke="none">
<path d="M11300 22989 c-275 -10 -491 -19 -525 -24 -16 -2 -82 -7 -145 -10
-63 -4 -117 -8 -120 -10 -3 -1 -52 -6 -110 -10 -58 -4 -107 -8 -110 -10 -3 -1
-36 -6 -75 -10 -38 -3 -83 -8 -100 -10 -16 -2 -52 -7 -80 -10 -27 -3 -59 -8
-70 -10 -11 -2 -42 -7 -70 -10 -27 -3 -57 -8 -65 -10 -8 -2 -42 -7 -75 -10
-32 -4 -62 -8 -65 -10 -3 -1 -27 -6 -55 -9 -27 -4 -57 -9 -65 -11 -8 -2 -33
-6 -55 -10 -22 -3 -96 -16 -165 -30 -69 -13 -136 -26 -150 -29 -14 -2 -47 -10
-75 -16 -27 -6 -59 -14 -70 -16 -37 -7 -60 -12 -110 -24 -27 -6 -57 -13 -65
-15 -8 -2 -37 -9 -65 -15 -27 -6 -60 -14 -72 -16 -12 -2 -34 -9 -48 -14 -14
-5 -25 -8 -25 -5 0 2 -25 -5 -55 -15 -30 -10 -55 -17 -55 -15 0 2 -25 -5 -55
-15 -30 -10 -55 -17 -55 -15 0 2 -25 -5 -55 -15 -30 -10 -55 -16 -55 -13 0 3
-7 0 -15 -7 -8 -7 -15 -10 -15 -7 0 3 -31 -5 -70 -18 -38 -13 -70 -21 -70 -18
0 3 -6 1 -13 -5 -7 -6 -25 -13 -41 -16 -42 -8 -399 -127 -413 -139 -7 -5 -13
-6 -13 -2 0 4 -6 2 -13 -4 -8 -6 -22 -12 -33 -14 -10 -1 -23 -5 -29 -8 -5 -4
-35 -14 -65 -24 -30 -10 -61 -23 -69 -29 -8 -6 -17 -10 -20 -10 -7 2 -9 1 -86
-28 -33 -12 -62 -23 -65 -23 -9 -3 -64 -25 -85 -35 -11 -5 -49 -21 -85 -35
-36 -14 -74 -30 -85 -35 -24 -11 -66 -27 -80 -30 -5 -1 -18 -9 -29 -18 -10 -9
-20 -16 -22 -14 -4 2 -21 -5 -104 -41 -14 -5 -27 -11 -30 -11 -17 -4 -569
-278 -695 -346 -49 -27 -108 -58 -130 -70 -62 -33 -82 -45 -99 -59 -9 -7 -16
-10 -16 -6 0 4 -7 1 -16 -6 -19 -15 -50 -34 -81 -48 -11 -5 -24 -15 -28 -21
-3 -5 -10 -8 -14 -5 -5 2 -16 -4 -26 -15 -10 -11 -24 -20 -30 -20 -7 0 -18 -7
-25 -15 -7 -9 -15 -13 -17 -11 -3 3 -27 -10 -53 -29 -26 -19 -50 -32 -52 -29
-3 2 -13 -5 -23 -16 -10 -11 -22 -20 -27 -20 -4 0 -31 -16 -58 -35 -28 -19
-50 -32 -50 -28 0 4 -13 -5 -28 -20 -16 -15 -31 -25 -34 -22 -2 3 -13 -4 -23
-15 -10 -11 -23 -20 -30 -20 -7 0 -20 -9 -30 -20 -10 -11 -23 -20 -30 -20 -7
0 -20 -9 -30 -20 -10 -11 -23 -20 -30 -20 -7 0 -20 -9 -30 -20 -10 -11 -23
-20 -30 -20 -6 0 -22 -11 -35 -25 -12 -13 -26 -22 -30 -20 -4 2 -18 -7 -30
-20 -13 -14 -29 -25 -35 -25 -6 0 -22 -11 -35 -25 -13 -14 -28 -25 -33 -25 -5
0 -24 -12 -43 -27 -64 -53 -98 -78 -105 -76 -3 1 -19 -11 -34 -27 -16 -17 -34
-30 -40 -30 -6 0 -26 -16 -45 -35 -18 -19 -36 -33 -38 -30 -3 3 -25 -12 -48
-33 -92 -79 -122 -102 -131 -102 -5 0 -29 -20 -53 -45 -24 -24 -46 -42 -50
-40 -4 2 -29 -18 -55 -45 -27 -28 -53 -50 -58 -50 -5 0 -33 -24 -64 -52 -30
-29 -62 -57 -71 -62 -17 -9 -38 -28 -285 -253 -160 -147 -577 -556 -577 -567
0 -5 -48 -58 -107 -118 -59 -60 -112 -117 -118 -127 -9 -17 -47 -60 -202 -230
-29 -32 -53 -62 -53 -67 0 -5 -22 -31 -50 -59 -27 -27 -49 -55 -50 -60 0 -6
-18 -29 -40 -50 -22 -21 -40 -43 -40 -48 0 -9 -23 -39 -102 -131 -21 -24 -38
-48 -38 -53 0 -5 -13 -22 -30 -38 -17 -16 -30 -34 -30 -40 0 -6 -13 -24 -30
-40 -16 -16 -30 -33 -30 -38 0 -5 -10 -22 -23 -37 -43 -56 -61 -80 -118 -166
-15 -22 -34 -45 -43 -53 -8 -7 -14 -17 -11 -21 2 -4 -7 -18 -20 -30 -14 -13
-25 -29 -25 -35 0 -7 -9 -20 -20 -30 -11 -10 -20 -23 -20 -30 0 -7 -9 -20 -20
-30 -11 -10 -20 -23 -20 -30 0 -7 -9 -20 -20 -30 -11 -10 -20 -24 -20 -30 0
-7 -7 -19 -16 -26 -9 -7 -20 -22 -25 -34 -14 -30 -33 -61 -49 -80 -16 -19 -35
-50 -49 -80 -5 -12 -16 -27 -25 -34 -9 -7 -14 -17 -11 -21 3 -4 -2 -13 -10
-20 -8 -7 -15 -18 -15 -25 0 -6 -9 -20 -20 -30 -11 -10 -17 -21 -15 -25 3 -4
-2 -13 -10 -20 -8 -7 -15 -18 -15 -25 0 -6 -9 -20 -20 -30 -11 -10 -17 -21
-15 -26 3 -4 0 -11 -5 -14 -6 -4 -16 -17 -21 -28 -5 -12 -18 -35 -29 -52 -10
-16 -33 -57 -50 -90 -17 -33 -40 -73 -50 -90 -10 -16 -33 -58 -50 -92 -17 -34
-35 -65 -40 -68 -6 -4 -8 -10 -5 -15 3 -5 1 -11 -4 -14 -8 -5 -214 -412 -216
-426 0 -3 -21 -45 -45 -95 -24 -49 -45 -92 -46 -95 -2 -10 -18 -47 -45 -106
-16 -34 -29 -64 -29 -67 0 -3 -13 -35 -30 -70 -16 -36 -30 -68 -30 -72 0 -5
-25 -65 -50 -120 -11 -23 -32 -76 -35 -87 -2 -5 -4 -10 -5 -13 -1 -3 -3 -8 -4
-12 -1 -5 -4 -12 -7 -18 -4 -5 -12 -28 -19 -50 -7 -22 -16 -44 -20 -50 -4 -5
-18 -41 -30 -80 -12 -38 -25 -74 -29 -80 -3 -5 -6 -13 -7 -17 -1 -5 -3 -10 -4
-13 -1 -3 -4 -9 -5 -15 -1 -5 -3 -11 -5 -12 -1 -2 -3 -10 -6 -18 -2 -8 -37
-113 -78 -232 -41 -120 -72 -218 -69 -218 3 0 0 -7 -7 -15 -7 -8 -10 -15 -7
-15 3 0 -3 -26 -14 -57 -11 -32 -22 -71 -25 -87 -3 -17 -10 -36 -16 -43 -6 -7
-8 -13 -5 -13 4 0 0 -18 -8 -40 -8 -22 -12 -40 -10 -40 2 0 -5 -25 -15 -55
-10 -30 -17 -55 -15 -55 2 0 -5 -25 -15 -55 -10 -30 -17 -55 -15 -55 3 0 0
-11 -5 -26 -6 -14 -12 -37 -15 -52 -9 -51 -14 -74 -20 -92 -3 -10 -8 -27 -10
-37 -2 -10 -9 -40 -15 -68 -6 -27 -14 -59 -16 -70 -7 -38 -12 -60 -24 -110 -6
-27 -14 -61 -16 -75 -3 -14 -16 -81 -29 -150 -14 -69 -27 -143 -30 -165 -4
-22 -8 -47 -10 -55 -2 -8 -7 -37 -11 -65 -3 -27 -7 -52 -9 -55 -2 -3 -6 -29
-10 -59 -4 -30 -8 -62 -10 -71 -2 -9 -6 -41 -10 -70 -4 -29 -9 -62 -11 -74 -2
-12 -6 -48 -9 -81 -3 -33 -8 -69 -10 -81 -3 -11 -7 -45 -10 -75 -3 -30 -8 -72
-10 -94 -2 -22 -7 -69 -10 -105 -4 -36 -8 -78 -10 -95 -2 -16 -7 -75 -10 -130
-4 -55 -8 -118 -11 -140 -2 -22 -6 -123 -9 -225 -4 -102 -9 -191 -11 -199 -5
-17 -5 -634 1 -716 2 -33 7 -127 10 -210 3 -82 8 -166 10 -185 2 -19 6 -74 10
-122 3 -47 8 -97 10 -110 2 -12 6 -62 10 -110 3 -49 8 -96 9 -105 2 -10 7 -52
11 -93 4 -41 9 -82 10 -91 2 -9 6 -40 10 -69 4 -29 8 -61 10 -70 2 -9 6 -41
10 -70 4 -29 8 -61 10 -70 2 -9 6 -41 10 -71 4 -30 8 -56 10 -59 2 -3 6 -30
10 -60 4 -30 8 -57 10 -60 2 -3 6 -30 10 -60 4 -30 9 -58 11 -61 2 -4 6 -24
10 -45 5 -35 50 -256 59 -294 4 -15 33 -148 41 -185 2 -11 20 -83 39 -160 20
-77 37 -147 39 -155 16 -61 48 -175 51 -180 2 -4 6 -18 9 -33 11 -64 243 -775
258 -794 6 -7 7 -13 3 -13 -4 0 -3 -6 2 -13 6 -6 18 -37 28 -67 10 -30 21 -59
25 -65 4 -5 15 -35 25 -65 10 -30 21 -59 25 -65 4 -5 13 -28 20 -50 7 -22 26
-68 42 -102 15 -34 28 -64 28 -68 0 -4 6 -21 14 -38 19 -42 58 -129 85 -192
12 -27 30 -68 41 -90 34 -74 301 -609 333 -670 42 -77 119 -214 134 -240 7
-11 15 -27 20 -35 6 -13 99 -172 123 -210 11 -19 101 -165 115 -188 6 -9 24
-37 40 -62 17 -25 32 -50 35 -55 6 -12 162 -244 211 -315 17 -25 46 -65 63
-90 17 -24 54 -75 81 -112 28 -37 61 -84 75 -103 14 -20 41 -56 60 -80 19 -23
51 -63 70 -89 19 -25 64 -83 100 -127 36 -45 79 -99 95 -120 43 -54 103 -127
150 -180 22 -26 78 -90 125 -144 131 -151 350 -385 505 -540 199 -200 532
-509 622 -578 20 -15 60 -49 88 -75 59 -53 138 -120 169 -141 12 -8 40 -31 63
-50 23 -20 63 -52 88 -71 25 -19 63 -49 83 -65 20 -17 47 -37 58 -45 41 -28
156 -115 189 -143 18 -15 37 -27 43 -27 5 0 16 -7 23 -16 12 -14 44 -38 107
-79 9 -5 54 -37 101 -70 127 -89 346 -233 409 -267 18 -10 55 -34 82 -53 28
-19 52 -35 54 -35 3 0 56 -31 118 -68 62 -38 120 -71 128 -75 8 -4 29 -15 45
-25 33 -21 113 -66 220 -124 67 -36 598 -300 680 -338 90 -42 177 -80 180 -80
3 0 28 -11 57 -24 83 -39 194 -84 308 -127 58 -22 114 -44 125 -49 84 -40 874
-302 952 -316 15 -3 29 -7 33 -9 3 -2 42 -14 86 -25 89 -24 78 -22 194 -50 47
-12 112 -28 145 -36 33 -9 67 -17 75 -19 8 -2 38 -9 65 -15 28 -6 59 -14 70
-16 11 -2 29 -6 40 -8 68 -15 266 -55 299 -60 21 -4 41 -8 45 -10 3 -2 31 -7
61 -11 30 -4 57 -8 60 -10 3 -2 30 -6 60 -10 30 -4 57 -8 60 -10 3 -2 29 -6
59 -10 30 -4 62 -8 71 -10 9 -2 41 -6 70 -10 29 -4 61 -8 70 -10 9 -2 41 -6
70 -10 29 -4 61 -8 70 -10 9 -2 53 -6 96 -10 43 -3 86 -8 94 -10 8 -2 49 -7
90 -10 41 -3 86 -8 100 -10 14 -2 68 -7 120 -10 52 -4 111 -8 130 -10 294 -27
1316 -27 1605 1 28 2 129 11 225 19 96 9 191 18 210 20 19 3 112 14 205 25
1231 149 2515 538 3655 1107 455 227 804 429 1235 716 267 178 309 207 511
357 472 353 882 710 1305 1137 471 475 826 894 1201 1418 163 229 435 643 513
783 6 10 38 65 71 122 236 403 455 838 643 1278 196 458 389 1013 512 1472 12
47 28 108 36 135 97 361 215 972 268 1388 46 366 64 573 85 947 8 150 6 1036
-3 1080 -3 14 -8 91 -12 171 -3 80 -8 157 -10 170 -2 13 -6 58 -9 99 -7 88
-14 169 -21 225 -2 22 -7 67 -10 100 -4 33 -8 71 -11 85 -2 14 -11 81 -19 150
-9 69 -18 136 -20 149 -2 13 -8 45 -12 70 -4 25 -8 48 -8 51 -1 3 -5 30 -10
60 -5 30 -9 57 -10 60 -1 3 -5 30 -10 60 -5 30 -9 57 -10 60 -13 56 -15 68
-41 210 -8 47 -19 99 -24 115 -5 17 -11 44 -14 60 -2 17 -9 53 -16 80 -6 28
-14 60 -16 72 -2 12 -9 34 -14 48 -5 14 -8 25 -5 25 2 0 -2 18 -10 40 -8 22
-14 43 -14 45 0 3 -5 31 -12 63 -15 69 -16 71 -19 75 -1 1 -3 9 -5 17 -2 8
-13 51 -25 95 -12 44 -23 87 -25 95 -2 8 -4 15 -5 15 -1 0 -3 8 -5 17 -2 10
-12 46 -23 80 -43 136 -84 272 -87 282 -1 6 -5 19 -9 28 -4 9 -9 22 -10 30 -2
7 -6 21 -10 30 -4 9 -9 22 -10 30 -2 7 -6 21 -10 30 -4 9 -8 22 -10 30 -1 7
-4 18 -7 23 -4 6 -26 69 -49 140 -23 72 -46 135 -50 140 -4 6 -15 35 -25 65
-10 30 -22 61 -28 68 -5 6 -6 12 -2 12 4 0 3 6 -2 13 -6 6 -16 30 -23 52 -7
22 -16 45 -20 50 -4 6 -11 21 -15 35 -4 14 -15 43 -25 65 -19 45 -33 78 -35
85 0 3 -10 25 -22 50 -20 45 -35 80 -38 90 -1 5 -36 84 -63 140 -9 19 -17 37
-17 40 0 3 -15 35 -33 72 -18 37 -34 71 -35 75 -3 16 -208 417 -219 430 -6 7
-7 13 -3 13 5 0 2 8 -6 18 -8 9 -26 40 -39 67 -13 28 -31 58 -39 68 -8 9 -11
17 -6 17 4 0 1 7 -6 16 -15 18 -27 39 -59 99 -11 22 -29 54 -40 70 -11 17 -29
48 -40 70 -11 22 -29 54 -40 70 -11 17 -23 37 -27 45 -4 8 -20 34 -35 56 -15
23 -28 45 -28 48 0 3 -15 28 -32 54 -48 70 -57 85 -67 107 -5 12 -16 27 -25
34 -9 7 -14 17 -11 21 3 5 1 12 -5 15 -9 6 -32 39 -75 106 -39 62 -107 159
-115 164 -6 4 -8 10 -5 14 2 5 -7 19 -20 31 -14 13 -25 29 -25 35 0 7 -9 20
-20 30 -11 10 -20 22 -20 28 0 5 -12 25 -27 43 -16 19 -40 49 -55 68 -16 18
-28 38 -28 43 0 5 -11 20 -25 33 -14 13 -25 29 -25 35 0 6 -13 24 -30 40 -16
16 -30 34 -30 40 0 6 -13 24 -30 40 -16 16 -30 34 -30 40 0 6 -18 29 -40 50
-22 21 -40 44 -40 50 0 6 -18 29 -40 50 -22 21 -40 44 -40 50 0 6 -18 29 -40
50 -22 21 -40 44 -40 50 0 6 -22 33 -50 60 -27 27 -50 53 -50 58 0 5 -26 36
-57 69 -32 33 -62 68 -68 78 -5 10 -46 57 -90 105 -130 141 -798 815 -808 815
-5 0 -37 27 -71 59 -33 33 -76 72 -95 88 -18 15 -61 53 -95 84 -33 31 -68 60
-77 65 -16 9 -69 53 -168 142 -27 23 -52 42 -57 42 -6 0 -30 20 -54 45 -24 24
-46 42 -48 40 -3 -3 -24 12 -48 33 -53 46 -99 82 -129 102 -33 22 -72 51 -110
83 -18 15 -37 27 -42 27 -5 0 -22 13 -38 30 -15 16 -31 27 -35 25 -4 -3 -15 4
-24 14 -10 10 -37 31 -62 47 -24 15 -44 32 -44 37 0 4 -4 6 -9 3 -4 -3 -18 6
-31 19 -13 13 -26 22 -30 20 -4 -2 -18 7 -30 20 -13 14 -29 25 -35 25 -7 0
-20 9 -30 20 -10 11 -23 20 -30 20 -7 0 -20 9 -30 20 -10 11 -23 20 -30 20 -7
0 -20 9 -30 20 -10 11 -24 20 -30 20 -7 0 -19 7 -26 16 -7 9 -22 20 -34 25
-11 5 -33 18 -50 29 -16 11 -39 24 -50 29 -12 5 -27 16 -34 25 -7 9 -17 14
-21 11 -4 -3 -14 2 -21 11 -7 9 -22 20 -34 25 -21 9 -30 15 -103 62 -24 15
-45 27 -48 27 -2 0 -23 12 -47 27 -23 15 -44 28 -47 28 -3 0 -12 5 -20 10 -29
19 -55 34 -77 44 -11 5 -24 15 -28 21 -3 5 -10 8 -15 5 -5 -3 -11 -1 -15 5 -3
5 -25 19 -48 31 -71 35 -125 65 -141 78 -9 8 -16 10 -16 6 0 -5 -9 0 -20 10
-11 10 -20 14 -20 10 0 -4 -8 -1 -17 7 -22 18 -406 209 -414 205 -4 -1 -17 7
-29 18 -12 11 -24 19 -26 17 -4 -3 -27 8 -169 74 -22 10 -42 19 -45 19 -9 3
-44 18 -90 38 -25 12 -47 22 -50 22 -10 3 -65 26 -85 35 -17 8 -70 30 -85 35
-3 1 -18 8 -35 15 -16 7 -32 14 -35 15 -7 2 -61 24 -80 32 -8 3 -18 7 -22 8
-5 2 -10 4 -13 5 -3 1 -8 3 -12 5 -5 1 -21 7 -36 13 -16 7 -30 12 -32 12 -2 0
-16 5 -32 12 -15 6 -32 13 -38 14 -28 9 -242 85 -255 91 -8 3 -18 7 -22 8 -5
2 -10 4 -13 5 -3 1 -9 4 -15 5 -5 1 -11 3 -12 5 -2 1 -11 3 -21 5 -10 2 -26 7
-35 11 -9 4 -23 8 -30 10 -8 1 -21 6 -30 10 -9 4 -26 9 -36 11 -11 2 -25 8
-33 14 -7 6 -13 9 -13 6 0 -3 -39 8 -87 24 -49 16 -99 31 -112 34 -12 2 -51
13 -85 23 -82 26 -173 53 -194 57 -9 2 -62 15 -117 29 -55 15 -112 29 -127 31
-15 3 -38 9 -52 15 -15 5 -26 7 -26 5 0 -2 -11 0 -25 5 -14 5 -36 12 -48 14
-12 3 -56 12 -97 21 -41 9 -86 19 -99 21 -12 3 -51 11 -85 19 -33 8 -83 17
-111 21 -27 3 -53 8 -56 10 -3 2 -21 6 -40 9 -19 3 -56 10 -84 15 -27 5 -66
12 -85 15 -19 3 -46 7 -60 10 -56 10 -202 32 -270 40 -30 4 -57 8 -60 10 -3 2
-39 6 -80 10 -41 4 -77 8 -80 10 -3 1 -36 6 -75 9 -38 4 -81 9 -95 11 -14 2
-56 6 -95 9 -38 3 -90 8 -115 11 -65 7 -139 13 -270 20 -63 4 -137 8 -165 10
-27 2 -158 6 -290 10 -132 4 -251 8 -265 9 -14 0 -108 -2 -210 -5z m780 -172
c19 -3 89 -8 155 -11 66 -4 138 -9 160 -11 22 -2 74 -7 115 -10 41 -3 89 -8
105 -10 17 -2 57 -6 90 -10 33 -3 71 -7 85 -10 14 -2 54 -6 90 -9 36 -4 74 -8
85 -10 11 -2 43 -7 70 -10 28 -4 61 -9 75 -11 14 -2 47 -6 73 -10 27 -4 56 -8
65 -10 35 -6 209 -35 247 -40 22 -4 48 -8 57 -11 10 -3 30 -7 45 -10 72 -12
241 -46 268 -54 17 -5 44 -11 60 -14 17 -2 53 -9 80 -16 28 -6 61 -14 74 -16
14 -3 28 -7 31 -9 4 -2 20 -6 36 -9 16 -3 74 -17 129 -32 55 -14 107 -27 115
-29 38 -8 174 -46 180 -50 4 -2 18 -6 33 -9 51 -9 713 -223 732 -236 6 -4 42
-18 80 -30 39 -12 75 -26 80 -30 6 -3 39 -17 75 -29 36 -12 74 -26 85 -31 11
-5 65 -27 120 -50 55 -23 109 -45 120 -50 11 -5 36 -15 55 -24 19 -8 66 -28
103 -45 38 -17 70 -31 72 -31 24 0 733 -355 840 -421 22 -13 54 -31 70 -39 17
-8 58 -32 93 -52 34 -21 64 -38 67 -38 2 0 24 -13 48 -30 25 -16 47 -30 50
-30 4 0 26 -13 50 -30 25 -16 49 -30 55 -30 5 0 16 -7 23 -16 7 -9 22 -20 34
-25 34 -16 59 -32 279 -178 210 -140 218 -146 316 -216 19 -14 51 -36 70 -50
19 -13 53 -38 75 -54 22 -17 56 -42 75 -56 35 -25 71 -53 175 -135 32 -25 67
-52 79 -60 11 -8 39 -30 62 -50 22 -19 69 -57 103 -85 201 -159 576 -500 826
-750 176 -176 519 -547 572 -618 12 -16 39 -48 60 -70 42 -46 102 -118 148
-177 17 -21 50 -64 75 -95 25 -31 56 -71 70 -89 14 -18 45 -59 70 -91 88 -113
109 -142 225 -305 14 -19 35 -49 47 -66 44 -61 283 -418 287 -429 4 -10 80
-130 110 -175 10 -14 20 -32 24 -40 4 -8 21 -37 37 -65 17 -27 49 -81 71 -120
22 -38 54 -92 70 -120 16 -27 38 -68 50 -90 11 -22 42 -80 69 -130 27 -49 96
-184 153 -300 109 -218 136 -275 222 -470 58 -132 69 -158 100 -235 14 -36 30
-74 35 -85 23 -53 40 -95 59 -150 12 -33 26 -69 31 -80 26 -54 208 -583 239
-695 10 -36 33 -114 51 -174 17 -60 34 -118 36 -129 2 -11 8 -34 13 -51 16
-48 105 -406 127 -511 2 -11 6 -29 8 -40 28 -129 66 -319 71 -355 3 -25 10
-63 15 -85 5 -22 11 -60 15 -85 9 -67 15 -103 20 -120 2 -8 7 -39 10 -69 4
-30 8 -61 10 -70 1 -9 6 -38 9 -66 4 -27 9 -61 11 -75 3 -14 7 -47 10 -75 2
-27 7 -74 11 -104 4 -30 8 -66 9 -80 2 -14 6 -51 9 -81 7 -66 19 -211 31 -380
15 -202 20 -404 20 -745 0 -442 -10 -697 -39 -1000 -2 -16 -6 -66 -10 -110 -4
-44 -9 -91 -11 -105 -2 -14 -6 -52 -10 -85 -9 -94 -19 -173 -30 -235 -1 -8 -6
-42 -9 -75 -8 -65 -14 -106 -21 -145 -3 -14 -7 -41 -10 -60 -3 -19 -7 -46 -10
-60 -3 -14 -7 -41 -10 -60 -3 -19 -12 -69 -20 -110 -8 -41 -16 -86 -19 -100
-2 -14 -7 -36 -10 -50 -3 -14 -8 -36 -10 -50 -3 -14 -17 -81 -31 -150 -14 -69
-29 -136 -31 -149 -3 -14 -7 -28 -9 -31 -2 -4 -6 -20 -9 -36 -3 -16 -22 -92
-41 -169 -20 -77 -38 -148 -40 -157 -5 -21 -31 -113 -57 -194 -10 -34 -21 -73
-23 -85 -3 -13 -27 -90 -54 -172 -27 -81 -50 -150 -50 -152 0 -13 -34 -121
-41 -130 -4 -5 -24 -62 -45 -125 -21 -63 -43 -128 -51 -145 -7 -16 -28 -70
-47 -120 -19 -49 -38 -99 -42 -110 -5 -11 -9 -22 -10 -25 -5 -15 -27 -68 -35
-85 -5 -11 -21 -49 -35 -85 -15 -36 -32 -78 -40 -95 -7 -16 -25 -57 -40 -90
-47 -107 -57 -129 -92 -205 -54 -117 -239 -485 -293 -585 -28 -49 -59 -108
-70 -130 -11 -22 -30 -56 -42 -75 -11 -19 -28 -48 -37 -65 -9 -16 -28 -48 -42
-70 -14 -22 -29 -47 -33 -55 -4 -8 -12 -24 -19 -35 -7 -11 -28 -46 -47 -79
-19 -32 -42 -68 -50 -81 -15 -23 -76 -121 -95 -154 -20 -33 -268 -398 -320
-471 -30 -41 -66 -91 -80 -110 -14 -19 -35 -49 -47 -66 -13 -17 -57 -75 -98
-129 -41 -54 -82 -107 -90 -119 -8 -11 -30 -40 -50 -63 -19 -23 -55 -67 -80
-98 -70 -88 -239 -285 -385 -449 -112 -127 -697 -711 -831 -831 -55 -49 -140
-124 -189 -165 -49 -41 -112 -95 -140 -120 -29 -25 -78 -65 -110 -90 -31 -25
-76 -61 -100 -80 -23 -19 -66 -53 -95 -75 -29 -22 -70 -53 -91 -70 -21 -16
-57 -43 -79 -60 -23 -16 -56 -42 -74 -58 -19 -15 -38 -27 -44 -27 -5 0 -16 -7
-23 -16 -8 -9 -31 -28 -53 -43 -68 -45 -83 -55 -127 -87 -24 -16 -73 -50 -109
-74 -36 -25 -66 -48 -68 -52 -2 -5 -8 -8 -12 -8 -5 0 -56 -31 -114 -70 -57
-38 -107 -70 -111 -70 -3 0 -18 -9 -33 -19 -47 -33 -168 -109 -208 -131 -21
-12 -52 -30 -69 -41 -16 -10 -37 -22 -45 -26 -8 -3 -31 -16 -50 -28 -19 -12
-62 -37 -95 -55 -33 -18 -76 -42 -95 -53 -176 -99 -814 -417 -836 -417 -3 0
-26 -10 -52 -21 -26 -12 -72 -33 -102 -46 -30 -14 -69 -31 -87 -39 -17 -8 -35
-14 -40 -14 -4 -1 -26 -9 -48 -20 -22 -11 -44 -19 -48 -20 -5 0 -33 -11 -63
-25 -30 -14 -60 -25 -67 -25 -7 0 -17 -4 -23 -8 -5 -5 -38 -19 -74 -31 -36
-12 -78 -28 -95 -36 -16 -7 -68 -25 -115 -40 -47 -15 -91 -32 -97 -38 -7 -5
-13 -6 -13 -2 0 4 -6 3 -12 -2 -13 -10 -102 -42 -136 -48 -9 -2 -17 -4 -17 -5
0 -1 -8 -3 -18 -5 -10 -2 -26 -7 -35 -11 -9 -4 -22 -8 -29 -10 -7 -1 -54 -15
-105 -32 -156 -49 -266 -83 -285 -87 -31 -6 -176 -46 -183 -50 -4 -2 -17 -6
-31 -8 -13 -3 -64 -15 -114 -27 -49 -12 -97 -23 -106 -25 -8 -2 -44 -10 -80
-19 -65 -16 -194 -44 -239 -52 -14 -2 -36 -7 -50 -10 -14 -3 -36 -8 -50 -10
-14 -2 -36 -7 -50 -10 -14 -3 -36 -8 -50 -10 -14 -3 -47 -9 -75 -14 -27 -5
-66 -12 -85 -15 -19 -3 -46 -7 -60 -10 -14 -3 -38 -7 -55 -9 -159 -25 -179
-28 -275 -41 -155 -20 -191 -24 -245 -30 -33 -4 -70 -8 -82 -10 -12 -2 -57 -6
-100 -10 -43 -4 -94 -9 -113 -11 -19 -2 -75 -6 -125 -9 -49 -4 -108 -8 -130
-10 -290 -26 -1223 -26 -1500 -1 -22 3 -80 7 -130 10 -49 4 -101 8 -115 10
-14 3 -61 7 -105 10 -75 6 -127 11 -200 21 -16 2 -52 7 -80 10 -27 3 -63 8
-80 10 -16 2 -52 7 -80 10 -27 3 -72 10 -100 15 -27 5 -72 12 -100 15 -27 3
-57 8 -65 10 -8 2 -33 6 -55 10 -39 5 -91 14 -130 22 -11 2 -36 6 -55 9 -19 3
-41 7 -49 10 -8 2 -30 7 -50 10 -30 5 -102 19 -196 40 -11 2 -29 6 -40 8 -11
3 -54 12 -95 21 -41 9 -84 18 -95 21 -11 2 -83 20 -160 40 -77 19 -151 38
-164 40 -14 3 -27 7 -31 9 -7 4 -152 44 -183 50 -51 11 -735 233 -752 245 -5
4 -35 15 -65 25 -30 10 -59 21 -65 25 -5 4 -28 13 -50 20 -42 13 -137 51 -192
76 -17 8 -34 14 -38 14 -5 0 -42 15 -120 50 -11 5 -42 18 -70 30 -67 28 -78
33 -165 73 -41 19 -97 45 -125 57 -74 33 -459 224 -545 271 -41 23 -108 59
-149 81 -40 21 -91 50 -112 64 -21 13 -41 24 -43 24 -4 0 -205 118 -256 150
-15 10 -109 67 -138 85 -50 30 -360 236 -459 305 -36 25 -73 50 -82 55 -9 6
-61 44 -116 85 -55 41 -109 82 -121 90 -38 26 -177 133 -215 164 -20 17 -62
51 -93 76 -32 25 -67 53 -79 64 -24 20 -128 106 -192 158 -22 18 -65 56 -95
85 -30 28 -71 64 -91 80 -170 135 -703 673 -969 978 -47 54 -103 119 -125 144
-46 52 -106 124 -150 180 -16 21 -59 75 -95 120 -36 44 -81 102 -100 127 -19
25 -48 63 -65 84 -16 20 -55 72 -85 115 -30 43 -66 92 -80 109 -14 17 -29 38
-35 48 -32 52 -149 219 -161 229 -8 6 -14 15 -14 20 0 5 -26 48 -59 97 -53 80
-100 151 -126 194 -5 9 -25 40 -43 70 -18 29 -38 62 -45 73 -7 11 -24 39 -39
63 -16 24 -28 45 -28 48 0 2 -11 21 -23 42 -13 20 -39 64 -57 97 -18 33 -41
74 -51 90 -10 17 -31 55 -47 85 -17 30 -48 89 -71 130 -81 151 -266 529 -338
690 -13 30 -28 64 -33 75 -5 11 -18 43 -30 70 -12 28 -25 59 -30 70 -42 95
-140 339 -140 350 0 4 -7 21 -15 38 -31 67 -248 697 -240 697 2 0 -10 39 -26
88 -16 48 -31 96 -33 107 -6 30 -47 178 -51 185 -2 4 -6 17 -9 31 -2 13 -21
87 -40 164 -20 77 -38 149 -40 160 -6 27 -37 166 -41 185 -9 38 -54 259 -59
294 -4 21 -8 41 -10 45 -2 3 -7 31 -11 61 -4 30 -8 57 -10 60 -2 3 -6 30 -10
60 -4 30 -8 57 -10 60 -2 3 -6 33 -10 65 -3 33 -8 67 -10 75 -2 8 -7 38 -11
65 -3 28 -8 58 -10 69 -2 10 -6 44 -9 75 -4 31 -8 63 -10 71 -2 8 -7 51 -11
95 -3 44 -7 82 -9 85 -2 3 -6 46 -10 95 -3 50 -8 101 -10 115 -3 14 -7 68 -11
120 -3 52 -8 111 -10 130 -25 249 -25 1363 0 1497 2 10 7 69 10 130 4 62 9
123 11 135 2 13 6 59 10 102 4 43 8 86 10 95 1 9 6 50 10 91 3 41 8 82 10 90
2 8 7 40 10 70 3 30 8 66 11 80 2 14 6 43 9 65 2 22 9 72 15 110 6 39 13 84
16 100 2 17 6 41 9 55 3 14 7 41 10 60 3 19 14 80 25 135 11 55 22 114 25 130
6 38 14 74 19 100 3 11 12 54 21 95 9 41 19 86 21 100 8 42 72 298 105 420 17
63 32 123 34 133 5 24 40 136 92 301 25 76 46 146 48 156 2 11 9 28 15 39 6
12 8 21 6 21 -6 0 18 74 34 105 6 11 28 72 49 135 45 129 87 245 101 275 5 11
21 52 36 90 26 69 33 85 73 177 12 26 21 49 21 52 0 2 14 35 31 73 32 72 38
85 65 148 65 152 373 771 401 808 6 6 29 48 52 91 40 75 70 126 98 171 7 11
24 40 38 65 14 25 31 54 38 65 75 120 98 156 121 195 39 65 42 69 152 234 147
220 183 273 239 348 28 37 61 84 75 103 14 20 39 54 55 75 17 22 44 58 60 80
17 22 35 46 41 53 6 6 26 32 45 57 19 25 61 78 94 119 33 40 69 85 79 100 11
14 40 49 65 77 25 28 78 88 116 134 146 172 258 293 520 558 282 286 538 525
746 697 26 22 80 67 120 100 39 33 84 70 101 81 16 12 43 34 61 50 31 28 166
133 211 164 11 8 48 35 81 60 33 25 71 53 85 63 14 10 43 31 65 48 38 28 90
65 140 99 157 105 353 237 367 245 9 6 40 25 70 43 29 18 62 38 73 45 11 7 39
24 62 40 23 15 44 27 47 27 3 0 25 14 49 30 25 17 48 30 51 30 4 0 25 12 49
27 23 15 56 35 72 44 17 9 46 26 65 37 19 11 60 34 90 50 30 17 89 48 130 71
158 85 552 278 695 340 79 35 86 38 155 69 113 51 134 60 160 67 14 4 53 21
87 36 33 16 64 29 67 29 7 0 176 64 221 84 17 8 82 30 145 51 63 21 120 41
125 45 6 4 21 10 35 14 14 4 49 14 79 22 29 8 59 18 65 21 6 4 16 8 23 9 7 1
68 20 135 42 68 22 159 50 203 62 44 12 107 31 140 41 54 16 403 104 458 115
34 7 54 11 162 34 55 12 120 26 145 31 25 4 59 11 75 14 17 3 64 12 105 20 41
8 89 17 105 19 67 10 101 16 120 20 11 2 40 7 65 11 25 4 52 9 60 10 8 1 42 6
75 11 33 4 62 8 65 9 3 0 37 5 75 9 39 5 77 9 85 11 8 2 49 6 90 10 41 4 82 9
91 10 9 2 52 6 95 10 43 4 90 8 104 10 14 2 70 7 125 11 55 4 118 8 140 10 22
1 112 6 200 9 88 4 162 9 164 11 6 5 918 -4 961 -9z"/>
<path d="M11417 22354 c-1 -1 -119 -5 -262 -8 -143 -4 -276 -9 -295 -11 -19
-2 -82 -6 -140 -10 -58 -4 -118 -8 -135 -10 -16 -1 -66 -6 -110 -9 -44 -4 -96
-9 -115 -11 -19 -3 -57 -7 -85 -10 -100 -12 -122 -14 -235 -30 -63 -9 -131
-18 -150 -21 -33 -4 -205 -32 -242 -39 -9 -2 -38 -7 -65 -11 -26 -5 -50 -8
-53 -9 -3 -1 -18 -4 -35 -8 -16 -4 -43 -9 -60 -12 -81 -14 -108 -19 -155 -30
-3 -1 -32 -7 -65 -14 -33 -7 -73 -16 -90 -21 -16 -5 -46 -11 -65 -14 -19 -3
-62 -13 -95 -22 -33 -8 -67 -17 -75 -19 -50 -11 -80 -18 -120 -30 -25 -7 -74
-20 -110 -30 -200 -54 -673 -200 -725 -225 -11 -5 -60 -23 -110 -40 -49 -17
-97 -33 -105 -36 -8 -3 -15 -4 -16 -2 0 2 -7 -2 -15 -8 -8 -6 -39 -19 -69 -29
-30 -10 -59 -21 -65 -25 -5 -4 -28 -13 -50 -20 -22 -7 -44 -16 -50 -20 -5 -4
-21 -11 -35 -15 -22 -6 -58 -21 -135 -55 -11 -5 -50 -22 -86 -39 -37 -17 -70
-31 -73 -31 -3 0 -45 -18 -93 -41 -49 -22 -113 -52 -143 -66 -106 -49 -316
-153 -390 -194 -41 -23 -109 -59 -150 -81 -41 -22 -91 -49 -110 -60 -19 -12
-57 -33 -85 -47 -27 -15 -68 -38 -90 -52 -22 -14 -47 -29 -55 -32 -8 -4 -28
-16 -45 -27 -16 -11 -39 -24 -50 -30 -11 -6 -33 -19 -50 -30 -16 -11 -37 -23
-45 -27 -16 -7 -66 -39 -163 -104 -32 -22 -61 -39 -66 -39 -4 0 -16 -9 -26
-20 -10 -11 -23 -20 -30 -20 -7 0 -20 -9 -30 -20 -10 -11 -23 -20 -28 -20 -6
0 -19 -7 -29 -17 -10 -9 -27 -21 -37 -27 -11 -6 -48 -31 -83 -55 -35 -25 -76
-54 -93 -65 -41 -28 -237 -174 -285 -211 -21 -16 -59 -46 -85 -65 -25 -19 -68
-53 -95 -75 -27 -22 -72 -58 -101 -80 -29 -22 -75 -61 -103 -86 -28 -25 -63
-54 -77 -65 -36 -27 -150 -127 -233 -205 -39 -36 -87 -79 -106 -95 -98 -80
-663 -659 -790 -809 -19 -22 -55 -63 -80 -91 -25 -27 -72 -83 -105 -124 -33
-40 -78 -94 -100 -121 -88 -105 -111 -133 -125 -154 -8 -13 -35 -49 -60 -80
-60 -78 -95 -123 -124 -165 -14 -19 -39 -53 -55 -75 -17 -22 -52 -71 -78 -109
-26 -38 -57 -81 -68 -96 -28 -38 -119 -173 -125 -185 -4 -9 -29 -47 -125 -195
-53 -81 -100 -157 -115 -185 -6 -11 -19 -33 -30 -50 -11 -16 -23 -37 -27 -45
-4 -8 -24 -43 -44 -76 -21 -34 -52 -88 -69 -120 -17 -33 -40 -74 -51 -92 -43
-73 -252 -478 -254 -492 0 -3 -29 -63 -63 -133 -34 -70 -62 -130 -62 -133 0
-3 -11 -29 -24 -57 -13 -29 -33 -74 -45 -102 -12 -27 -26 -59 -31 -70 -8 -18
-30 -71 -35 -85 -4 -11 -19 -47 -36 -87 -11 -23 -19 -46 -19 -50 0 -4 -6 -20
-14 -35 -8 -14 -19 -43 -26 -65 -7 -21 -18 -51 -26 -68 -40 -90 -245 -702
-259 -777 -3 -12 -13 -49 -23 -82 -32 -101 -53 -177 -58 -202 -2 -13 -9 -35
-14 -49 -5 -14 -8 -25 -5 -25 2 0 -2 -18 -10 -40 -8 -22 -12 -40 -10 -40 2 0
-2 -18 -10 -40 -8 -22 -12 -40 -10 -40 3 0 0 -11 -5 -25 -5 -14 -12 -36 -14
-48 -3 -12 -17 -78 -31 -147 -14 -69 -28 -136 -31 -150 -2 -14 -7 -36 -10 -50
-3 -14 -8 -36 -10 -50 -3 -14 -11 -59 -19 -100 -8 -41 -17 -91 -20 -110 -3
-19 -7 -46 -10 -60 -3 -14 -7 -41 -10 -60 -3 -19 -7 -46 -10 -60 -5 -27 -9
-53 -21 -140 -4 -30 -8 -57 -9 -60 -1 -3 -5 -36 -9 -75 -5 -38 -9 -77 -11 -85
-2 -8 -6 -49 -10 -90 -4 -41 -8 -82 -10 -90 -1 -8 -6 -55 -9 -105 -4 -49 -9
-101 -11 -115 -5 -38 -14 -163 -20 -280 -3 -58 -8 -150 -11 -205 -7 -133 -7
-733 0 -860 4 -55 8 -143 11 -195 6 -111 16 -243 31 -400 9 -105 21 -211 29
-270 2 -14 6 -50 10 -80 4 -30 8 -66 10 -80 2 -14 7 -45 10 -70 7 -52 7 -51
36 -230 11 -74 23 -144 25 -155 3 -11 7 -36 10 -55 5 -30 47 -238 60 -295 2
-11 6 -31 9 -45 3 -14 16 -74 30 -135 15 -60 28 -118 30 -128 2 -9 11 -45 20
-80 9 -34 18 -71 20 -81 3 -10 9 -33 15 -51 6 -18 12 -41 14 -52 6 -27 24 -93
53 -188 14 -44 26 -89 29 -99 6 -33 196 -600 204 -611 4 -5 13 -28 20 -50 7
-22 18 -53 25 -70 7 -16 27 -68 45 -115 31 -81 54 -137 86 -207 8 -17 14 -33
14 -36 0 -3 14 -36 31 -74 17 -37 37 -84 46 -103 54 -126 325 -676 384 -780
34 -60 78 -139 117 -210 13 -25 31 -52 38 -61 8 -8 14 -18 14 -22 0 -3 23 -43
51 -89 27 -46 56 -92 62 -103 23 -38 100 -161 122 -195 13 -19 36 -55 51 -79
16 -24 34 -51 39 -59 12 -19 56 -83 93 -136 15 -22 34 -49 42 -61 41 -60 75
-107 125 -175 30 -41 66 -91 80 -110 35 -48 72 -97 129 -171 27 -34 52 -67 57
-73 4 -6 25 -31 46 -56 22 -25 48 -57 59 -71 52 -71 171 -211 265 -313 30 -34
68 -77 83 -96 26 -32 316 -339 392 -414 82 -82 393 -377 424 -402 19 -15 65
-55 101 -88 84 -77 176 -157 203 -175 12 -8 39 -31 62 -50 50 -44 115 -98 159
-131 19 -14 59 -45 91 -70 69 -54 117 -91 164 -125 19 -14 55 -41 80 -59 59
-45 264 -189 345 -243 22 -14 80 -52 129 -84 48 -33 92 -59 96 -59 4 0 14 -7
21 -16 7 -9 22 -20 34 -25 11 -5 32 -17 47 -27 66 -42 327 -198 368 -220 25
-13 61 -33 80 -44 19 -11 67 -37 105 -58 39 -21 88 -48 110 -60 51 -29 344
-176 450 -225 86 -40 197 -91 230 -105 11 -5 51 -23 88 -39 38 -17 71 -31 74
-31 3 0 19 -6 36 -14 62 -28 222 -94 247 -101 14 -4 39 -13 55 -21 17 -7 55
-23 85 -34 82 -32 670 -229 670 -225 0 2 26 -5 58 -16 54 -19 186 -56 226 -65
10 -2 33 -8 51 -14 18 -6 41 -12 51 -14 10 -3 46 -12 79 -20 33 -9 73 -19 89
-22 16 -3 33 -7 37 -9 4 -3 52 -14 106 -26 136 -28 136 -28 158 -33 59 -13
265 -55 295 -60 19 -3 44 -7 55 -10 11 -2 40 -7 65 -11 25 -4 52 -9 60 -10 8
-1 35 -6 60 -10 25 -4 52 -9 61 -10 9 -2 40 -6 69 -10 29 -4 60 -8 69 -10 9
-1 39 -6 66 -9 28 -4 61 -9 75 -11 14 -2 52 -7 85 -10 65 -8 74 -9 180 -19 39
-4 81 -9 95 -11 22 -3 130 -12 240 -20 19 -1 94 -6 165 -10 72 -3 159 -8 195
-11 75 -4 805 -4 865 0 22 2 108 7 190 10 83 4 161 9 175 11 14 2 61 6 105 10
145 11 215 18 315 30 140 17 299 37 320 40 14 2 57 9 95 15 114 18 129 20 155
25 14 3 41 7 60 10 19 3 58 10 85 15 52 10 74 14 160 30 47 9 73 14 120 24 23
5 163 36 185 41 8 2 56 13 105 25 50 12 98 24 108 26 10 2 27 6 37 9 10 3 27
8 37 10 10 2 54 13 98 25 44 12 89 24 99 26 11 2 40 10 65 17 25 8 96 29 156
47 61 18 117 35 125 38 8 3 20 6 27 8 35 7 269 88 277 95 6 5 19 9 31 9 12 0
25 4 31 9 5 5 54 23 109 41 55 18 105 36 110 40 6 4 35 15 65 25 30 10 60 21
65 25 6 4 21 11 35 15 14 4 39 13 55 20 17 8 59 26 95 40 58 23 81 33 155 65
11 5 49 22 85 38 36 16 90 40 120 53 78 34 635 313 695 349 28 16 68 39 90 50
22 11 63 34 90 51 28 16 59 34 70 39 11 6 34 19 50 30 17 11 39 24 50 30 11 6
34 19 50 30 17 11 39 24 50 30 11 6 47 28 80 50 33 22 67 43 75 47 8 4 62 38
120 76 109 72 115 76 218 148 35 24 74 51 86 59 35 23 97 67 141 101 22 16 51
37 65 47 14 9 51 37 83 62 125 97 143 110 167 127 14 9 43 33 66 53 23 19 67
55 99 80 32 25 81 65 110 90 29 25 92 79 140 120 190 162 321 285 580 545 306
305 467 479 593 638 19 23 51 60 71 82 58 62 251 305 346 435 14 19 39 53 56
75 16 22 37 51 47 65 9 14 37 52 62 85 41 53 148 210 175 253 6 10 49 76 96
147 47 72 99 152 115 178 16 27 37 61 46 75 10 15 22 36 28 47 5 11 16 29 22
40 26 39 63 101 79 130 9 17 26 46 37 65 11 19 34 60 51 91 16 30 43 80 60
110 37 64 297 582 328 654 12 28 32 73 45 100 12 28 23 52 23 55 1 3 11 28 24
55 12 28 26 59 31 70 5 11 21 49 35 85 15 36 33 79 41 97 8 17 14 34 14 38 0
4 7 21 15 38 12 28 57 143 60 157 1 3 5 12 8 20 28 67 197 560 191 560 -1 0
12 45 31 100 19 55 32 100 30 100 -2 0 5 26 16 57 11 32 21 66 23 78 2 11 18
72 35 135 25 92 62 244 86 350 6 25 36 164 40 183 2 10 6 26 9 35 3 9 7 35 11
57 3 22 14 85 25 140 11 55 22 114 24 130 3 17 12 71 20 120 13 80 38 250 52
360 3 22 7 51 9 65 2 14 6 52 10 85 3 33 8 71 10 85 2 14 7 61 10 105 3 44 8
105 12 135 3 30 7 78 8 105 2 28 6 106 10 175 13 226 14 261 14 625 0 369 -1
400 -14 615 -12 218 -12 208 -30 405 -2 22 -7 69 -11 105 -3 36 -8 76 -9 90
-3 26 -12 107 -21 175 -3 22 -7 47 -9 55 -2 8 -6 40 -10 71 -3 31 -7 66 -9 76
-3 11 -7 44 -11 74 -4 30 -8 56 -10 59 -2 3 -6 30 -10 60 -4 30 -8 57 -10 60
-2 3 -6 26 -9 52 -5 38 -68 355 -81 408 -5 22 -36 161 -41 187 -2 12 -9 34
-14 48 -5 14 -8 25 -5 25 2 0 -2 18 -10 40 -8 22 -12 40 -10 40 2 0 -2 18 -10
40 -8 22 -12 40 -10 40 3 0 0 12 -6 27 -9 25 -47 160 -54 193 -12 60 -242 768
-255 785 -4 6 -11 21 -15 35 -9 30 -72 197 -85 225 -5 11 -29 70 -54 130 -60
149 -84 205 -154 355 -19 41 -50 109 -69 150 -19 41 -62 129 -95 195 -92 184
-146 286 -241 455 -11 19 -29 52 -41 73 -11 21 -25 46 -31 55 -22 39 -171 285
-187 310 -10 15 -21 34 -25 41 -4 8 -47 76 -97 151 -50 75 -95 144 -101 152
-18 27 -109 160 -133 192 -12 17 -33 47 -47 66 -14 19 -39 53 -56 75 -16 22
-37 51 -47 65 -9 14 -37 51 -62 83 -25 32 -56 73 -70 91 -70 92 -223 282 -300
372 -187 217 -265 303 -521 569 -177 185 -568 550 -749 700 -40 33 -93 78
-119 100 -25 23 -63 54 -84 70 -21 17 -55 44 -76 60 -149 118 -331 255 -340
255 -5 0 -15 7 -22 16 -8 9 -30 27 -49 40 -19 13 -49 34 -66 46 -53 39 -175
122 -195 134 -10 6 -27 18 -37 27 -10 10 -23 17 -29 17 -5 0 -18 9 -28 20 -10
11 -21 20 -25 20 -4 0 -55 30 -112 68 -57 37 -113 72 -123 79 -94 57 -162 98
-179 107 -12 6 -40 24 -63 39 -24 15 -46 27 -50 27 -3 0 -14 6 -22 14 -9 7
-50 31 -91 53 -41 22 -100 55 -130 72 -69 39 -586 298 -660 330 -30 14 -92 42
-138 63 -46 21 -86 38 -88 38 -3 0 -35 14 -71 30 -35 17 -67 30 -71 30 -4 1
-25 9 -47 20 -22 11 -44 19 -48 20 -5 0 -23 6 -40 14 -40 18 -203 81 -237 91
-14 4 -29 11 -35 15 -18 14 -737 246 -792 256 -15 3 -29 7 -33 9 -8 5 -155 45
-187 51 -12 2 -34 9 -48 14 -14 5 -25 7 -25 5 0 -2 -11 0 -25 5 -14 5 -36 12
-48 14 -12 2 -60 13 -107 24 -47 11 -101 24 -120 28 -19 4 -39 9 -45 10 -34 9
-357 73 -390 78 -42 7 -219 36 -246 41 -9 2 -40 6 -69 10 -29 4 -61 8 -70 10
-9 2 -41 6 -70 10 -29 4 -60 8 -69 10 -9 1 -47 6 -86 10 -38 4 -81 8 -95 10
-68 10 -112 15 -185 20 -44 3 -91 8 -105 10 -14 2 -74 7 -135 11 -60 3 -128 8
-150 9 -77 6 -714 23 -718 19z m668 -178 c22 -2 90 -7 150 -11 61 -3 124 -8
140 -10 17 -2 67 -7 112 -10 46 -3 91 -8 100 -9 10 -2 50 -7 88 -11 39 -3 84
-8 100 -10 17 -2 53 -7 80 -10 28 -3 57 -8 65 -10 8 -2 40 -6 70 -10 30 -3 66
-7 80 -10 14 -2 43 -6 65 -10 47 -6 221 -35 250 -41 11 -3 36 -7 55 -10 33 -6
309 -61 340 -69 15 -4 148 -33 183 -40 10 -2 27 -7 37 -10 10 -3 28 -8 39 -10
12 -2 49 -11 84 -20 34 -9 73 -19 86 -21 14 -3 27 -7 31 -9 6 -4 144 -42 180
-50 67 -15 678 -213 695 -225 6 -4 42 -18 80 -30 39 -12 75 -26 80 -30 6 -4
42 -18 80 -30 39 -12 75 -26 80 -30 6 -4 53 -24 105 -45 143 -57 185 -75 313
-134 48 -23 90 -41 93 -41 8 0 514 -252 599 -298 103 -57 186 -103 220 -124
17 -10 37 -21 45 -25 14 -6 123 -70 160 -93 8 -5 39 -24 69 -42 29 -18 65 -41
80 -50 14 -10 33 -21 41 -25 8 -4 36 -22 62 -40 26 -18 50 -33 52 -33 2 0 52
-33 111 -72 59 -40 117 -80 130 -88 13 -8 52 -35 87 -59 34 -25 77 -54 93 -65
45 -31 161 -117 205 -151 21 -16 59 -46 84 -65 26 -19 67 -51 90 -70 24 -19
69 -55 101 -80 31 -25 99 -81 152 -125 52 -44 109 -91 126 -105 18 -14 57 -48
87 -76 30 -29 71 -64 90 -80 36 -29 154 -140 344 -324 129 -125 435 -444 477
-496 16 -20 55 -65 87 -99 31 -34 84 -95 117 -135 33 -40 78 -94 100 -120 22
-25 60 -72 85 -105 25 -32 59 -74 75 -94 17 -20 39 -47 48 -61 9 -14 35 -47
57 -75 22 -27 51 -66 65 -85 13 -19 38 -53 54 -75 17 -22 52 -71 78 -109 26
-38 57 -81 68 -96 30 -41 227 -338 263 -395 27 -44 168 -276 199 -330 7 -11
17 -29 22 -40 6 -11 24 -42 40 -70 80 -135 143 -255 272 -515 123 -250 134
-273 189 -395 39 -87 44 -98 70 -160 12 -27 25 -59 30 -70 6 -11 16 -38 24
-60 8 -22 22 -58 32 -80 10 -22 18 -42 19 -45 1 -3 5 -14 10 -25 22 -55 73
-193 80 -215 4 -14 13 -38 21 -55 16 -36 163 -471 168 -500 2 -11 16 -58 31
-104 15 -46 28 -91 30 -100 2 -9 15 -59 30 -111 15 -52 29 -105 31 -117 2 -12
9 -34 14 -48 5 -14 8 -25 5 -25 -2 0 2 -18 10 -40 8 -22 12 -40 10 -40 -3 0 0
-11 5 -25 5 -14 12 -36 14 -48 2 -12 11 -52 20 -88 8 -37 17 -78 20 -90 3 -13
20 -100 40 -194 19 -93 37 -190 41 -215 3 -25 8 -52 10 -60 2 -8 7 -35 10 -60
4 -25 10 -63 15 -85 4 -22 11 -65 14 -96 4 -31 8 -66 10 -76 3 -11 7 -44 11
-73 4 -29 8 -60 10 -69 1 -9 6 -47 9 -86 4 -38 9 -81 11 -95 7 -53 15 -128 20
-195 3 -38 8 -90 10 -115 5 -49 12 -149 25 -360 7 -133 4 -1031 -4 -1100 -2
-19 -7 -89 -11 -155 -4 -66 -8 -127 -10 -135 -2 -8 -6 -58 -10 -110 -4 -52 -9
-102 -10 -111 -2 -9 -6 -52 -10 -95 -3 -43 -8 -86 -10 -94 -2 -8 -6 -33 -9
-55 -10 -82 -56 -401 -61 -425 -3 -14 -7 -38 -10 -55 -3 -16 -10 -52 -15 -80
-5 -27 -12 -63 -15 -80 -3 -16 -7 -41 -10 -55 -3 -14 -8 -41 -11 -60 -3 -19
-7 -43 -10 -52 -3 -9 -7 -25 -9 -35 -6 -30 -36 -167 -40 -183 -2 -8 -10 -44
-18 -80 -43 -192 -119 -468 -189 -688 -17 -51 -31 -98 -32 -105 -1 -7 -5 -17
-8 -23 -4 -6 -9 -22 -12 -37 -2 -15 -7 -31 -11 -37 -4 -6 -9 -23 -11 -38 -3
-15 -14 -46 -24 -69 -10 -24 -16 -43 -13 -43 3 0 1 -6 -4 -13 -6 -6 -25 -57
-43 -112 -18 -55 -36 -104 -40 -110 -4 -5 -15 -35 -25 -65 -10 -30 -21 -59
-25 -65 -4 -5 -13 -28 -20 -50 -7 -22 -16 -44 -20 -50 -4 -5 -13 -28 -20 -50
-7 -22 -16 -44 -20 -50 -4 -5 -11 -21 -15 -33 -4 -13 -16 -45 -28 -70 -12 -26
-22 -49 -22 -52 -1 -3 -11 -27 -24 -55 -12 -27 -26 -59 -31 -70 -27 -63 -105
-226 -196 -410 -96 -194 -139 -276 -206 -395 -13 -25 -40 -72 -58 -105 -18
-33 -44 -77 -57 -97 -12 -21 -23 -40 -23 -42 0 -3 -12 -22 -26 -43 -14 -21
-30 -47 -35 -58 -5 -11 -18 -33 -29 -50 -11 -16 -23 -37 -27 -45 -4 -8 -21
-35 -38 -60 -17 -25 -35 -52 -39 -60 -14 -29 -155 -243 -234 -355 -15 -22 -46
-65 -68 -96 -124 -178 -288 -397 -359 -480 -16 -20 -50 -62 -75 -94 -25 -33
-65 -83 -90 -111 -166 -193 -201 -234 -256 -293 -33 -36 -97 -106 -141 -156
-141 -157 -645 -646 -751 -730 -14 -11 -54 -45 -88 -75 -64 -57 -172 -150
-189 -162 -5 -4 -34 -28 -63 -53 -29 -25 -56 -45 -60 -45 -4 0 -23 -15 -42
-33 -19 -18 -45 -39 -56 -47 -12 -8 -84 -62 -160 -120 -76 -58 -150 -113 -164
-122 -14 -10 -39 -28 -57 -40 -132 -95 -374 -258 -383 -258 -4 0 -14 -7 -21
-16 -7 -9 -22 -20 -34 -25 -11 -5 -32 -17 -46 -27 -15 -9 -53 -33 -84 -52 -31
-19 -69 -43 -84 -52 -14 -10 -35 -22 -46 -28 -11 -5 -29 -16 -40 -22 -39 -26
-101 -63 -130 -79 -16 -9 -46 -26 -65 -37 -19 -11 -60 -34 -90 -50 -30 -16
-89 -48 -130 -71 -85 -46 -509 -258 -585 -291 -27 -13 -83 -38 -123 -56 -41
-19 -76 -34 -79 -34 -2 0 -33 -13 -66 -29 -34 -15 -73 -32 -87 -36 -14 -4 -29
-11 -35 -15 -5 -4 -28 -13 -50 -20 -22 -7 -44 -16 -50 -20 -5 -4 -28 -13 -50
-20 -22 -7 -44 -16 -50 -20 -5 -4 -35 -15 -65 -25 -30 -10 -59 -21 -65 -25 -5
-4 -75 -29 -155 -55 -80 -27 -149 -52 -154 -57 -6 -4 -18 -8 -28 -8 -10 0 -26
-4 -36 -9 -19 -10 -249 -84 -352 -113 -245 -69 -366 -102 -423 -113 -10 -2
-27 -7 -37 -10 -10 -3 -28 -8 -41 -10 -12 -2 -36 -9 -53 -14 -17 -6 -44 -12
-61 -15 -16 -2 -64 -12 -105 -21 -41 -9 -83 -18 -93 -20 -10 -2 -26 -6 -35 -9
-9 -3 -33 -7 -52 -10 -19 -3 -46 -8 -60 -11 -14 -3 -41 -8 -60 -11 -19 -3 -53
-9 -75 -14 -22 -5 -62 -12 -90 -16 -27 -3 -52 -7 -55 -9 -3 -2 -30 -6 -60 -10
-30 -4 -57 -8 -60 -10 -3 -2 -33 -6 -65 -10 -33 -3 -67 -8 -75 -10 -8 -2 -37
-7 -65 -10 -27 -3 -63 -8 -80 -10 -16 -2 -52 -7 -80 -10 -27 -3 -63 -8 -80
-10 -16 -2 -61 -6 -100 -10 -38 -3 -83 -8 -100 -10 -16 -2 -73 -7 -125 -10
-52 -4 -111 -9 -130 -11 -267 -26 -1124 -26 -1481 1 -135 9 -217 16 -244 20
-16 2 -61 7 -100 10 -38 3 -81 7 -95 9 -14 3 -52 7 -85 11 -33 3 -71 7 -85 10
-14 2 -47 7 -75 10 -87 10 -120 15 -340 51 -237 38 -427 77 -715 146 -69 17
-132 31 -140 33 -8 2 -51 13 -95 25 -44 12 -88 23 -97 25 -22 5 -115 32 -209
62 -41 13 -86 26 -99 28 -41 8 -454 147 -467 158 -7 5 -13 6 -13 2 0 -4 -7 -2
-15 5 -8 7 -15 9 -15 5 0 -4 -6 -3 -12 2 -7 5 -42 20 -78 32 -36 12 -74 26
-85 31 -11 5 -51 21 -90 36 -38 15 -89 35 -112 45 -23 11 -45 19 -48 19 -5 0
-32 11 -120 50 -11 5 -51 23 -88 39 -38 17 -70 31 -72 31 -23 0 -646 311 -840
420 -33 18 -69 38 -80 44 -16 9 -125 74 -403 241 -103 62 -357 233 -527 355
-38 28 -86 61 -105 75 -72 52 -99 71 -155 115 -32 25 -67 52 -79 60 -11 8 -38
28 -58 45 -20 16 -55 46 -79 65 -23 19 -49 39 -58 44 -9 5 -37 27 -62 50 -26
23 -82 70 -125 106 -43 36 -108 92 -144 125 -36 33 -79 71 -96 84 -16 13 -72
65 -124 115 -52 50 -142 136 -200 191 -123 118 -416 427 -545 574 -49 57 -110
127 -136 155 -45 51 -182 219 -229 280 -14 18 -45 59 -70 90 -117 150 -135
174 -184 246 -13 19 -31 41 -40 49 -9 7 -16 19 -16 26 0 7 -7 18 -15 25 -9 7
-37 45 -63 84 -26 39 -78 115 -115 169 -37 54 -67 100 -67 102 0 2 -24 39 -53
82 -29 43 -56 85 -60 93 -8 17 -20 36 -64 102 -18 26 -33 50 -33 53 0 2 -24
44 -53 92 -29 48 -56 95 -60 103 -5 8 -13 24 -20 35 -104 172 -350 656 -470
925 -8 19 -27 61 -41 92 -14 31 -26 59 -26 62 0 2 -14 34 -30 69 -17 36 -30
68 -30 72 0 3 -8 25 -19 48 -10 23 -30 71 -43 107 -14 36 -29 74 -33 85 -5 11
-9 22 -9 25 -3 10 -58 155 -71 185 -17 40 -155 464 -190 585 -15 52 -34 116
-42 141 -7 25 -15 54 -17 65 -2 10 -14 55 -26 99 -12 44 -24 87 -26 95 -2 8
-18 74 -35 145 -17 72 -33 144 -36 160 -2 17 -8 44 -13 60 -10 35 -54 256 -75
380 -3 17 -7 41 -10 55 -3 14 -7 39 -9 55 -15 93 -26 165 -31 200 -4 22 -8 51
-10 65 -3 14 -7 50 -10 80 -4 30 -8 62 -10 70 -2 8 -7 47 -11 85 -3 39 -8 79
-10 90 -2 11 -6 49 -9 85 -3 36 -7 79 -10 95 -2 17 -7 71 -11 120 -3 50 -7
106 -9 125 -26 247 -26 1232 -1 1490 2 19 7 78 11 130 3 52 8 104 10 115 2 11
7 57 10 101 3 45 8 93 10 105 2 13 6 51 10 84 3 33 7 71 10 85 2 14 7 48 10
75 3 28 8 57 10 65 2 8 7 42 10 75 4 32 8 62 10 65 1 3 6 28 9 55 4 28 9 57
11 65 2 8 6 33 10 55 3 22 12 74 20 115 8 41 16 86 19 100 2 14 7 36 10 50 3
14 8 36 10 50 4 23 42 204 51 240 2 8 9 38 15 65 6 28 14 60 16 72 2 12 9 34
14 48 5 14 8 25 5 25 -2 0 2 18 10 40 8 22 14 43 13 45 -1 8 52 203 73 271 11
33 21 69 23 80 2 10 21 71 41 134 21 63 38 119 40 125 1 5 5 18 9 27 4 9 9 22
10 30 8 39 29 105 38 116 6 6 7 12 3 12 -4 0 -3 6 2 13 6 6 27 64 48 127 21
63 41 120 45 125 4 6 13 28 20 50 13 42 51 137 76 192 8 17 14 35 14 40 1 4 9
26 20 48 11 22 19 44 20 48 0 5 12 34 26 65 14 31 32 71 39 87 31 70 65 144
95 210 40 89 255 519 282 565 11 19 38 69 60 110 22 41 53 98 69 125 16 28 34
59 39 70 6 11 19 34 30 50 11 17 23 37 27 45 4 8 19 33 33 55 14 22 30 49 37
60 64 107 105 171 150 237 29 44 53 80 53 82 0 7 219 325 266 386 34 45 68 92
101 140 9 14 31 42 48 62 16 20 44 55 60 78 17 23 48 63 70 89 22 27 58 72 80
100 22 28 59 73 83 100 23 27 52 62 64 77 12 16 42 52 67 79 25 28 57 64 70
80 112 136 596 634 736 758 44 38 112 100 151 136 73 68 180 162 223 197 13
10 48 39 76 64 29 25 78 65 110 90 31 25 76 61 100 80 23 19 64 51 89 70 47
35 112 86 172 135 18 14 35 25 39 25 4 0 22 12 41 28 55 45 160 121 239 172
13 8 57 39 100 68 42 28 80 52 84 52 4 0 16 9 26 20 10 11 24 20 30 20 7 0 19
7 26 16 7 9 22 20 34 25 11 5 47 27 80 49 33 22 67 43 75 46 8 4 22 13 30 19
8 7 42 27 75 45 33 18 67 39 76 46 8 8 19 14 22 14 4 0 24 11 45 23 32 21 77
46 182 105 208 115 685 353 825 412 11 5 50 22 86 39 37 17 70 31 74 31 4 0
21 6 38 14 86 39 127 56 134 56 4 0 20 6 35 14 14 8 43 19 65 26 21 7 43 16
48 20 6 4 28 13 50 20 22 7 54 18 70 26 17 7 84 31 150 54 66 22 129 45 140
51 12 5 28 11 38 13 9 1 20 5 23 9 4 4 17 7 29 7 12 0 25 3 29 7 3 4 14 8 22
9 9 1 23 6 32 10 9 4 22 8 29 10 7 1 54 15 105 32 126 40 238 74 257 77 9 2
16 4 16 5 0 1 7 3 15 5 8 2 51 13 95 25 44 12 88 23 98 25 10 2 27 7 37 10 10
3 27 7 37 9 10 2 74 18 143 34 69 17 152 36 185 43 33 7 65 14 70 15 6 1 24 5
40 8 17 3 41 8 55 11 45 9 74 15 105 20 17 3 53 10 80 15 79 15 143 26 200 35
22 3 67 10 100 15 63 10 84 13 205 29 109 15 206 26 305 36 33 3 78 8 100 10
22 2 76 7 120 11 44 3 96 7 115 9 19 2 107 6 195 10 88 4 162 9 164 11 6 5
938 -4 986 -10z"/>
<path d="M10730 20570 l0 -770 470 0 470 0 0 170 0 170 -266 2 -266 3 -1 130
-1 130 252 3 252 2 -2 162 -3 162 -242 1 c-133 0 -245 3 -248 7 -6 6 -9 142
-5 256 0 9 60 12 265 12 l265 0 0 165 0 165 -470 0 -470 0 0 -770z"/>
<path d="M12126 21197 c-10 -73 -19 -150 -22 -172 -2 -22 -6 -56 -9 -75 -3
-19 -7 -55 -10 -80 -3 -25 -7 -61 -10 -80 -3 -19 -7 -53 -9 -75 -36 -293 -77
-630 -82 -670 -3 -27 -12 -93 -18 -145 -7 -52 -12 -96 -11 -97 0 -1 64 -9 140
-18 77 -9 151 -18 165 -20 14 -3 52 -7 85 -10 33 -4 74 -9 90 -11 17 -3 95 -7
175 -11 212 -8 337 18 476 102 224 133 350 400 339 715 -5 128 -23 200 -76
306 -40 82 -123 180 -199 236 -85 64 -208 114 -350 142 -65 13 -106 20 -240
41 -14 2 -101 13 -195 24 -93 12 -182 23 -196 26 l-27 4 -16 -132z m549 -284
c89 -19 205 -75 242 -116 66 -75 100 -190 89 -306 -18 -192 -85 -319 -198
-374 -81 -40 -239 -53 -370 -31 -32 5 -37 9 -33 27 3 12 14 99 25 192 11 94
22 186 25 205 10 82 26 208 29 240 14 122 22 176 25 187 2 5 99 -9 166 -24z"/>
<path d="M9815 21209 c-44 -11 -131 -31 -192 -46 l-113 -26 -1 -66 c0 -36 -2
-73 -3 -81 -2 -8 -6 -71 -10 -140 -7 -133 -13 -217 -25 -395 -4 -60 -7 -165
-7 -232 1 -68 0 -123 -1 -123 -2 0 -18 33 -37 73 -19 39 -59 115 -89 167 -79
140 -190 337 -227 404 -18 33 -55 98 -81 144 -27 47 -49 88 -49 92 0 21 -30
31 -62 22 -18 -6 -64 -17 -103 -26 -38 -8 -112 -25 -163 -37 l-93 -21 6 -91
c3 -51 8 -110 10 -132 2 -22 6 -80 10 -130 3 -49 8 -108 10 -130 2 -22 7 -85
10 -140 3 -55 10 -149 15 -210 5 -60 12 -153 15 -205 3 -52 8 -115 10 -140 2
-25 7 -88 11 -140 4 -52 9 -103 10 -112 1 -10 2 -41 3 -69 l1 -51 33 6 c17 3
103 23 190 43 l157 38 -4 35 c-3 19 -8 71 -11 115 -4 44 -8 91 -10 105 -2 14
-6 61 -10 105 -3 44 -8 98 -10 120 -2 22 -7 67 -10 100 -5 56 -9 96 -19 185
-3 19 -7 62 -11 95 -4 33 -10 79 -15 103 -4 23 -6 42 -4 42 2 0 18 -30 36 -67
17 -37 50 -101 73 -142 23 -42 61 -112 85 -156 24 -44 54 -97 67 -117 13 -21
23 -40 23 -42 0 -3 33 -63 73 -133 41 -70 89 -156 108 -191 32 -60 36 -63 64
-58 59 10 119 24 208 47 l37 10 1 57 c1 31 2 71 4 87 1 17 6 100 10 185 4 85
8 171 10 190 7 75 19 340 19 427 1 50 4 89 7 87 6 -3 27 -74 36 -117 1 -10 28
-84 58 -165 31 -81 58 -154 60 -162 2 -8 25 -69 50 -135 58 -149 125 -324 132
-347 6 -19 3 -19 113 6 36 8 99 22 140 31 110 25 125 31 123 46 -3 13 -294
753 -313 794 -5 11 -23 56 -40 100 -17 44 -35 89 -40 100 -5 11 -21 52 -36 90
-15 39 -34 88 -44 110 -10 22 -21 51 -25 65 -4 14 -11 30 -14 35 -4 6 -18 38
-31 73 -14 34 -29 62 -35 61 -5 -1 -46 -10 -90 -20z"/>
<path d="M7875 20644 c-73 -34 -164 -74 -170 -74 -4 0 -36 -13 -72 -30 -35
-16 -67 -30 -70 -30 -3 0 -19 -6 -36 -14 -81 -36 -183 -80 -307 -132 -74 -31
-143 -60 -152 -65 -15 -8 -13 -18 23 -105 22 -53 49 -115 59 -138 35 -78 80
-184 80 -190 0 -4 9 -25 19 -49 11 -23 32 -71 47 -107 14 -36 34 -83 44 -105
10 -22 44 -101 75 -175 32 -74 66 -153 76 -174 11 -22 19 -43 19 -48 0 -4 11
-32 25 -62 14 -30 25 -57 25 -60 0 -2 13 -33 29 -68 16 -35 36 -80 44 -100 12
-29 20 -36 34 -31 23 8 478 199 520 219 17 7 33 14 36 14 3 0 35 14 70 30 36
17 68 30 70 30 5 0 139 60 145 65 3 3 -22 72 -50 135 -14 30 -36 81 -48 113
-13 31 -28 57 -34 57 -12 0 -134 -49 -341 -138 -77 -34 -143 -58 -147 -54 -7
7 -86 193 -94 222 -3 11 51 38 218 109 123 52 226 97 230 100 6 6 -105 278
-120 293 -4 4 -20 1 -37 -7 -16 -7 -75 -33 -130 -56 -55 -23 -118 -49 -140
-59 -91 -41 -138 -60 -150 -60 -7 0 -20 21 -30 48 -10 26 -31 73 -46 105 -15
31 -25 57 -22 57 3 0 0 7 -7 15 -10 12 -2 19 53 45 36 16 68 30 71 30 3 0 29
11 58 24 29 14 94 41 143 61 143 59 157 66 152 84 -6 19 -56 137 -84 201 -12
25 -24 55 -27 68 -8 25 -11 26 -51 6z"/>
<path d="M15045 20613 c-86 -17 -237 -82 -305 -131 -331 -241 -449 -700 -273
-1057 32 -63 124 -188 158 -212 14 -10 40 -30 58 -45 49 -41 182 -104 279
-132 90 -26 211 -37 287 -27 l44 6 44 115 c24 63 57 149 73 190 15 41 32 84
36 94 7 18 6 18 -22 3 -61 -33 -122 -49 -200 -54 -177 -12 -327 81 -399 247
-16 35 -20 67 -20 155 0 103 3 115 34 188 107 249 336 348 556 241 39 -18 84
-46 101 -61 35 -32 88 -108 120 -172 l23 -45 11 30 c11 31 20 54 100 259 l51
130 -48 44 c-133 122 -263 190 -438 227 -63 13 -216 17 -270 7z"/>
<path d="M16254 20017 c-36 -56 -75 -114 -85 -129 -10 -15 -19 -32 -19 -38 0
-5 -4 -10 -8 -10 -4 0 -16 -15 -26 -32 -11 -18 -66 -104 -123 -190 -56 -87
-103 -162 -103 -168 0 -5 -4 -10 -8 -10 -5 0 -18 -17 -30 -38 -11 -21 -50 -82
-86 -136 -36 -54 -66 -100 -66 -102 0 -2 -15 -25 -32 -51 -18 -27 -37 -55 -43
-64 -21 -34 -69 -106 -105 -160 l-38 -56 170 -112 c93 -61 172 -111 176 -111
7 0 11 6 117 170 123 189 218 335 225 343 4 4 47 -19 96 -51 49 -32 136 -89
194 -127 58 -37 123 -80 146 -94 37 -24 40 -29 29 -46 -7 -11 -69 -107 -139
-213 -69 -106 -126 -195 -126 -197 0 -2 -14 -25 -31 -51 -18 -25 -28 -49 -23
-53 26 -17 227 -149 285 -186 59 -37 49 -42 130 81 78 122 247 382 372 574 41
63 110 169 152 235 43 66 110 170 150 230 39 61 75 115 79 122 4 8 -46 47
-155 118 -89 59 -167 109 -174 111 -8 4 -49 -50 -110 -143 -54 -81 -119 -181
-146 -221 -27 -41 -49 -77 -49 -81 0 -16 -39 -43 -52 -35 -7 4 -58 37 -113 73
-55 36 -108 71 -117 76 -63 35 -218 142 -218 149 0 6 11 26 24 45 13 20 48 74
78 121 30 47 91 141 136 209 l81 125 -77 50 c-43 28 -109 71 -147 96 -39 24
-82 52 -97 62 l-27 17 -67 -102z"/>
<path d="M6500 19976 c-138 -88 -464 -292 -497 -311 -10 -6 -38 -24 -63 -40
-25 -17 -49 -32 -55 -35 -72 -38 -101 -69 -76 -84 5 -3 30 -41 56 -84 25 -42
70 -115 100 -162 30 -47 75 -119 100 -160 26 -41 93 -149 150 -240 57 -91 125
-199 150 -240 26 -41 70 -113 100 -160 29 -47 73 -116 96 -155 23 -38 43 -71
45 -73 1 -2 26 12 56 31 81 52 206 131 226 142 9 6 81 51 160 100 151 95 167
105 280 174 40 24 72 47 72 51 0 7 -81 140 -149 246 l-27 41 -219 -138 c-121
-76 -224 -138 -230 -138 -9 -1 -23 19 -60 84 -6 11 -28 46 -48 77 l-37 57 93
56 c50 32 108 67 127 80 113 73 181 116 194 121 17 7 17 8 -82 167 -41 65 -77
117 -81 115 -7 -3 -210 -130 -285 -178 -13 -8 -49 -30 -80 -48 l-56 -34 -20
24 c-11 12 -19 26 -20 31 0 4 -22 41 -50 83 -27 41 -50 79 -50 84 0 7 85 70
95 70 2 0 155 94 333 206 22 15 22 15 3 42 -17 23 -45 67 -86 133 -5 10 -23
40 -40 68 -16 28 -32 51 -35 51 -3 0 -43 -24 -90 -54z"/>
<path d="M17911 18924 c-12 -15 -47 -54 -78 -88 -224 -242 -299 -323 -383
-411 -52 -55 -124 -132 -159 -170 -35 -39 -98 -106 -140 -150 -102 -107 -245
-265 -249 -274 -1 -4 28 -36 65 -71 38 -35 100 -94 139 -132 l72 -68 103 112
c218 239 312 334 307 308 -10 -42 -39 -174 -43 -190 -2 -8 -11 -49 -20 -90 -9
-41 -18 -82 -20 -90 -2 -8 -18 -78 -35 -155 l-32 -140 34 -29 c18 -15 93 -85
167 -155 74 -69 137 -124 140 -121 3 3 6 10 7 15 1 6 7 46 14 90 7 44 13 87
15 95 1 8 10 65 20 125 40 255 63 386 68 392 4 3 22 -2 42 -11 173 -83 334
-55 478 83 168 161 209 370 108 552 -31 56 -138 185 -191 231 -19 17 -100 92
-180 168 -159 150 -215 200 -223 200 -3 0 -15 -12 -26 -26z m129 -497 c48 -43
127 -142 137 -172 20 -60 -7 -132 -74 -199 -46 -47 -74 -58 -133 -55 -52 3
-114 38 -190 106 l-51 45 47 52 c144 157 228 246 233 246 3 0 17 -11 31 -23z"/>
<path d="M5163 18885 c-128 -29 -294 -121 -392 -216 -14 -13 -34 -31 -47 -39
-31 -21 -192 -168 -306 -280 l-97 -95 87 -91 c48 -51 107 -115 132 -142 25
-28 77 -84 116 -124 39 -40 95 -100 124 -133 57 -63 257 -278 401 -430 47 -49
109 -114 136 -144 l51 -55 123 115 c442 408 528 521 575 749 28 139 9 278 -56
416 -46 97 -77 138 -177 241 -120 122 -182 162 -328 214 -78 27 -253 35 -342
14z m220 -409 c56 -26 90 -53 153 -118 138 -143 175 -259 128 -401 -22 -68
-65 -128 -152 -217 l-74 -75 -102 106 c-55 59 -121 129 -146 157 -25 28 -83
90 -130 139 -47 49 -113 121 -147 159 -57 65 -61 72 -45 85 9 8 42 35 72 60
115 97 205 137 308 138 53 1 76 -5 135 -33z"/>
<path d="M11149 18886 c-2 -2 -58 -7 -124 -10 -66 -4 -140 -9 -165 -11 -96 -9
-156 -15 -180 -19 -14 -2 -56 -7 -94 -11 -38 -4 -79 -8 -90 -10 -12 -2 -39 -6
-61 -10 -46 -6 -220 -35 -250 -41 -11 -2 -33 -6 -50 -9 -71 -12 -142 -27 -170
-35 -16 -5 -46 -11 -65 -14 -91 -14 -476 -119 -642 -175 -65 -22 -118 -37
-118 -34 0 3 -6 1 -12 -4 -7 -6 -65 -27 -128 -48 -63 -21 -119 -41 -125 -45
-5 -4 -28 -13 -50 -20 -22 -7 -44 -16 -50 -20 -5 -4 -21 -11 -35 -15 -34 -10
-159 -64 -335 -145 -67 -31 -327 -160 -380 -189 -91 -49 -170 -94 -207 -118
-21 -12 -40 -23 -44 -23 -3 0 -26 -13 -51 -30 -24 -16 -47 -30 -50 -30 -4 0
-14 -6 -22 -14 -9 -8 -32 -22 -51 -32 -40 -22 -262 -170 -365 -244 -38 -28
-86 -61 -105 -75 -46 -33 -94 -70 -164 -125 -32 -25 -72 -56 -91 -70 -27 -21
-117 -96 -249 -210 -149 -127 -571 -549 -662 -660 -15 -19 -48 -58 -74 -86
-42 -47 -59 -67 -153 -183 -20 -25 -83 -107 -138 -181 -56 -74 -114 -151 -128
-170 -15 -19 -71 -102 -125 -185 -54 -82 -107 -162 -117 -177 -11 -15 -19 -29
-19 -32 0 -3 -12 -22 -26 -43 -14 -21 -30 -47 -35 -58 -5 -11 -18 -33 -29 -50
-10 -16 -25 -41 -33 -55 -7 -14 -28 -52 -47 -85 -64 -115 -109 -201 -164 -310
-66 -134 -156 -325 -156 -331 0 -3 -9 -26 -21 -52 -11 -26 -26 -60 -34 -77 -7
-16 -16 -41 -20 -55 -4 -14 -11 -29 -15 -35 -4 -5 -15 -35 -25 -65 -10 -30
-21 -59 -25 -65 -4 -5 -24 -62 -45 -125 -21 -63 -40 -119 -44 -125 -3 -5 -6
-15 -7 -22 -1 -7 -20 -68 -42 -135 -61 -190 -122 -413 -157 -576 -23 -107 -55
-266 -60 -302 -3 -25 -8 -52 -10 -60 -2 -8 -7 -35 -10 -60 -3 -25 -8 -52 -10
-60 -2 -8 -7 -35 -10 -60 -3 -25 -8 -52 -10 -60 -2 -8 -7 -51 -10 -95 -4 -44
-8 -82 -10 -85 -2 -3 -6 -41 -10 -85 -4 -44 -8 -96 -10 -115 -27 -257 -27
-1159 0 -1260 2 -8 6 -52 10 -96 3 -45 8 -93 10 -105 2 -13 6 -49 10 -80 3
-31 7 -66 9 -76 3 -11 7 -44 11 -73 4 -29 8 -60 10 -69 1 -9 6 -38 9 -65 4
-28 13 -79 21 -115 7 -36 16 -82 19 -101 5 -33 10 -55 20 -105 7 -34 14 -66
47 -200 17 -71 32 -137 34 -145 6 -30 54 -196 69 -237 8 -24 13 -43 11 -43
-10 0 175 -523 225 -635 32 -71 50 -115 50 -119 0 -2 14 -35 31 -73 17 -37 38
-84 46 -103 29 -66 164 -335 203 -405 21 -38 47 -86 57 -105 14 -29 100 -178
133 -230 5 -8 21 -35 36 -60 27 -45 257 -389 297 -445 12 -16 42 -56 67 -89
25 -32 54 -71 65 -86 29 -40 98 -127 147 -186 24 -29 62 -75 85 -103 244 -298
790 -821 1098 -1051 26 -19 64 -50 85 -67 20 -18 41 -33 45 -33 4 0 22 -12 41
-27 126 -105 529 -365 769 -499 239 -133 524 -271 738 -360 34 -14 76 -31 92
-39 17 -7 41 -16 55 -20 14 -4 30 -11 35 -15 6 -4 35 -15 65 -25 30 -10 60
-21 66 -26 6 -5 19 -10 30 -12 10 -1 24 -5 29 -8 10 -6 246 -83 409 -134 137
-42 477 -126 616 -151 14 -2 70 -13 125 -24 55 -10 120 -22 145 -26 25 -3 52
-8 61 -9 9 -2 40 -6 69 -10 29 -4 62 -8 73 -11 10 -2 45 -6 76 -9 31 -4 67 -8
81 -10 23 -3 89 -10 185 -20 296 -28 986 -28 1277 0 20 2 71 7 114 10 43 4 86
9 97 11 11 2 45 6 76 9 31 4 67 8 81 10 14 2 45 7 70 10 25 3 52 8 60 10 8 2
35 7 60 10 25 3 52 8 60 10 8 2 35 7 60 10 38 6 92 16 255 51 11 2 29 6 40 8
11 2 61 14 110 26 50 12 97 23 105 25 33 7 135 35 203 56 251 76 335 103 362
114 17 7 62 23 100 35 39 12 84 28 100 36 40 17 213 84 219 84 3 0 35 14 73
31 37 16 77 34 88 39 146 62 431 205 625 312 14 8 52 29 85 47 33 19 67 40 76
47 8 8 19 14 23 14 5 0 28 13 53 30 24 16 46 30 49 30 3 0 17 8 32 19 15 10
86 57 157 104 182 120 222 148 378 267 206 156 257 197 361 290 28 25 76 66
106 92 67 56 416 400 531 523 79 85 182 204 274 316 22 27 54 65 70 85 17 19
39 48 50 64 11 15 40 54 65 87 25 32 53 69 63 83 128 179 257 368 257 376 0 2
15 26 33 52 41 58 127 200 127 209 0 4 6 14 14 22 7 9 28 43 45 76 18 33 42
76 53 95 24 41 183 359 222 443 28 62 72 160 86 192 5 11 21 49 35 85 14 36
30 74 35 85 17 38 77 200 100 270 12 39 27 76 33 83 5 6 7 12 4 12 -3 0 19 72
48 160 29 88 52 160 50 160 -3 0 0 12 6 27 9 25 47 158 54 193 2 8 13 56 25
105 12 50 24 99 26 110 2 11 6 29 8 40 15 67 45 215 50 245 3 19 7 44 10 55 2
11 7 40 11 65 4 25 9 52 10 61 2 9 6 40 10 69 4 29 8 60 10 69 3 16 16 126 20
171 2 25 15 149 21 205 26 260 26 1087 -1 1259 -2 11 -6 56 -10 99 -4 43 -8
88 -10 100 -2 12 -6 47 -10 78 -3 31 -7 65 -9 75 -2 11 -7 42 -10 69 -8 56
-14 98 -21 135 -3 14 -7 41 -10 60 -3 19 -12 69 -20 110 -8 41 -17 86 -19 100
-24 133 -99 438 -152 617 -38 131 -137 429 -147 441 -5 6 -6 12 -2 12 4 0 3 6
-2 13 -6 6 -18 37 -28 67 -10 30 -21 60 -25 65 -4 6 -13 28 -20 50 -7 22 -16
45 -20 50 -4 6 -11 21 -15 35 -4 14 -21 54 -37 90 -16 36 -33 74 -38 85 -68
158 -240 502 -309 615 -11 19 -25 44 -31 55 -12 26 -52 93 -115 195 -27 45
-54 89 -60 98 -8 14 -142 214 -202 302 -32 46 -187 255 -217 292 -17 21 -49
60 -71 88 -252 319 -699 774 -1010 1030 -37 30 -86 71 -109 91 -47 40 -119 97
-152 119 -12 8 -48 35 -80 60 -32 25 -68 52 -80 60 -32 22 -104 73 -129 90
-42 29 -230 155 -247 165 -20 12 -117 72 -138 85 -37 23 -146 87 -160 93 -8 4
-31 17 -50 28 -99 61 -594 309 -615 309 -3 0 -39 16 -81 35 -41 19 -79 35 -82
35 -4 0 -19 6 -34 14 -14 8 -43 19 -65 26 -21 7 -42 16 -48 20 -5 4 -41 18
-80 30 -38 12 -74 26 -80 30 -12 9 -348 118 -460 150 -44 12 -101 29 -126 37
-25 7 -56 15 -68 18 -12 2 -31 7 -41 10 -10 3 -27 7 -37 9 -20 5 -178 41 -238
56 -22 6 -53 12 -70 15 -48 8 -86 15 -140 25 -27 5 -63 12 -80 15 -16 3 -39 7
-51 9 -12 2 -45 7 -74 11 -29 4 -61 8 -70 10 -9 2 -41 6 -70 10 -29 4 -60 8
-69 10 -9 1 -47 6 -86 9 -38 4 -81 9 -95 11 -14 2 -65 7 -115 11 -49 3 -108 8
-130 11 -49 5 -841 13 -846 9z m816 -170 c148 -13 202 -17 230 -21 17 -2 64
-7 105 -10 41 -4 84 -9 95 -11 11 -1 40 -6 65 -9 43 -6 85 -12 140 -20 40 -6
223 -37 245 -41 11 -2 31 -6 45 -9 14 -3 34 -7 45 -9 11 -3 63 -14 115 -25 52
-11 156 -36 230 -55 74 -19 146 -38 160 -42 77 -19 442 -135 455 -144 6 -4 35
-15 65 -25 55 -17 217 -78 255 -95 11 -5 36 -15 55 -24 47 -20 131 -55 155
-66 50 -21 515 -253 560 -280 28 -16 66 -37 85 -47 19 -9 53 -29 75 -43 22
-14 49 -30 60 -37 11 -7 44 -27 73 -45 30 -18 61 -38 70 -43 10 -6 51 -32 92
-60 41 -27 82 -54 91 -60 45 -28 140 -94 194 -135 33 -25 70 -52 81 -60 56
-38 187 -142 268 -210 48 -41 103 -86 120 -100 143 -111 537 -499 711 -699
167 -192 240 -279 270 -321 11 -15 67 -90 125 -166 95 -126 271 -382 339 -492
14 -24 34 -56 43 -70 10 -15 21 -34 25 -42 4 -8 23 -42 43 -75 20 -33 40 -67
43 -75 4 -8 21 -37 37 -65 31 -54 238 -467 263 -525 8 -19 24 -55 35 -80 12
-25 32 -74 47 -110 14 -36 30 -74 35 -85 15 -32 76 -196 90 -240 7 -22 17 -46
23 -52 5 -7 6 -13 2 -13 -4 0 -3 -6 2 -12 11 -14 70 -188 78 -228 2 -13 15
-58 28 -99 37 -116 89 -313 112 -419 2 -9 11 -51 20 -92 9 -41 18 -82 19 -90
9 -44 20 -96 21 -100 1 -3 5 -30 10 -60 5 -30 9 -57 10 -60 1 -3 5 -30 10 -60
5 -30 9 -57 10 -60 1 -3 5 -32 9 -65 5 -33 10 -68 12 -79 2 -10 6 -44 9 -75 4
-31 8 -67 10 -81 2 -14 7 -61 11 -105 4 -44 8 -93 10 -110 25 -272 25 -921 0
-1180 -2 -16 -7 -64 -11 -105 -4 -41 -8 -82 -10 -90 -2 -8 -6 -49 -10 -90 -4
-41 -8 -82 -10 -90 -4 -25 -14 -92 -20 -140 -3 -25 -8 -52 -10 -60 -2 -8 -6
-31 -9 -50 -3 -19 -8 -46 -11 -60 -3 -14 -8 -41 -11 -60 -3 -19 -12 -66 -21
-105 -20 -98 -22 -104 -54 -240 -11 -49 -23 -99 -25 -109 -2 -11 -10 -40 -18
-65 -16 -53 -37 -134 -37 -141 1 -15 -205 -613 -229 -665 -22 -47 -50 -114
-50 -118 0 -3 -10 -26 -22 -53 -12 -27 -23 -51 -23 -54 -4 -22 -239 -495 -295
-595 -22 -38 -44 -79 -50 -90 -6 -11 -19 -33 -30 -50 -11 -16 -24 -39 -29 -50
-5 -11 -20 -36 -33 -55 -13 -19 -27 -42 -31 -50 -20 -40 -219 -336 -302 -450
-30 -41 -66 -91 -80 -110 -13 -19 -45 -60 -70 -90 -24 -30 -56 -71 -70 -90
-26 -37 -70 -89 -220 -261 -112 -130 -521 -539 -638 -639 -193 -164 -230 -195
-392 -320 -96 -74 -126 -96 -195 -145 -19 -13 -53 -38 -75 -54 -22 -17 -49
-35 -60 -40 -12 -5 -27 -16 -34 -25 -7 -9 -18 -16 -24 -16 -6 0 -19 -7 -29
-17 -10 -9 -27 -21 -37 -27 -26 -15 -128 -77 -156 -96 -13 -8 -49 -31 -81 -50
-33 -19 -68 -40 -79 -47 -11 -7 -29 -17 -40 -22 -11 -6 -42 -24 -70 -40 -59
-35 -568 -291 -579 -291 -4 0 -36 -13 -69 -29 -34 -15 -73 -32 -87 -36 -14 -4
-29 -11 -35 -15 -5 -4 -28 -13 -50 -20 -22 -7 -44 -16 -50 -20 -5 -4 -28 -13
-50 -20 -22 -7 -44 -16 -50 -20 -16 -12 -571 -191 -633 -205 -9 -2 -80 -20
-157 -40 -77 -19 -151 -37 -165 -40 -14 -3 -34 -7 -45 -9 -83 -18 -166 -35
-195 -40 -46 -8 -84 -14 -145 -26 -60 -12 -94 -17 -160 -26 -27 -3 -59 -8 -70
-10 -11 -2 -49 -7 -85 -10 -36 -3 -76 -8 -90 -10 -14 -2 -63 -7 -110 -10 -47
-3 -91 -7 -97 -9 -78 -25 -1011 -26 -1163 -1 -14 2 -63 7 -110 10 -47 4 -96 8
-110 10 -14 3 -52 7 -85 11 -32 4 -62 8 -65 10 -3 1 -32 5 -65 9 -33 3 -71 8
-85 10 -14 3 -41 7 -60 10 -43 7 -79 13 -145 26 -27 5 -61 11 -75 14 -14 2
-36 7 -50 10 -14 3 -36 8 -50 10 -14 2 -47 10 -75 16 -27 6 -57 13 -65 15 -8
2 -37 9 -65 15 -27 6 -57 13 -65 15 -8 2 -51 13 -95 25 -44 12 -89 24 -100 27
-11 3 -54 16 -96 29 -41 14 -86 27 -99 29 -40 8 -214 67 -227 78 -7 5 -13 6
-13 2 0 -4 -6 -3 -12 2 -7 6 -51 23 -98 38 -47 15 -89 31 -95 35 -5 4 -28 13
-50 20 -22 7 -44 16 -50 20 -5 4 -21 11 -35 15 -22 6 -43 15 -135 55 -164 71
-638 307 -678 338 -7 5 -37 22 -67 38 -30 16 -71 40 -90 53 -19 12 -44 27 -55
32 -11 5 -47 27 -80 49 -33 22 -69 44 -80 49 -12 5 -27 16 -34 25 -7 9 -18 16
-24 16 -6 0 -19 7 -29 17 -10 9 -27 21 -37 27 -16 9 -87 58 -185 126 -12 8
-48 35 -80 60 -32 25 -71 54 -86 65 -40 29 -93 72 -255 205 -292 241 -780 734
-955 965 -14 18 -52 66 -85 106 -33 41 -68 85 -78 99 -9 14 -33 45 -51 70 -19
25 -56 76 -83 114 -26 37 -57 81 -68 96 -49 69 -85 121 -85 125 0 2 -17 30
-39 62 -65 97 -97 147 -104 163 -4 8 -16 29 -26 45 -11 17 -34 57 -51 90 -18
33 -37 67 -44 75 -15 20 -29 45 -88 159 -28 53 -53 101 -56 106 -4 6 -7 12 -7
15 -1 3 -31 66 -67 140 -70 144 -108 226 -108 234 0 2 -13 33 -29 68 -16 35
-41 95 -55 133 -15 39 -33 84 -41 100 -7 17 -20 55 -30 85 -10 30 -20 60 -24
65 -3 6 -7 15 -8 20 -1 6 -19 60 -40 121 -21 62 -40 118 -41 125 -2 8 -16 55
-32 104 -40 130 -65 223 -100 370 -39 167 -41 175 -46 205 -2 14 -7 36 -10 50
-3 14 -8 36 -10 50 -3 14 -11 59 -19 100 -8 41 -17 89 -19 105 -9 56 -15 100
-22 150 -3 28 -8 58 -10 69 -2 10 -6 44 -9 75 -4 31 -8 67 -10 81 -2 14 -7 59
-10 100 -4 41 -8 91 -10 110 -26 241 -26 1033 -1 1180 3 14 8 65 11 115 4 49
8 92 10 95 2 3 6 37 9 75 3 39 8 79 10 91 2 12 7 45 11 75 4 30 8 56 10 59 2
3 6 30 10 60 4 30 8 57 10 60 2 3 6 26 9 53 6 39 18 105 62 312 2 11 20 83 39
160 20 77 38 149 40 159 3 11 11 40 20 66 9 26 18 57 20 70 9 44 148 455 159
469 6 8 10 17 10 20 -1 3 1 13 4 21 10 30 55 146 68 175 7 17 25 59 40 95 14
36 35 85 46 110 36 81 251 515 262 529 6 7 27 42 46 77 95 171 162 283 221
366 10 15 19 31 19 36 0 5 9 17 20 27 11 10 20 24 20 30 0 7 7 19 16 26 9 7
20 22 25 34 5 11 23 38 40 60 16 22 41 56 54 75 14 19 35 49 47 67 36 51 138
182 203 261 33 40 74 90 90 111 87 111 234 270 440 476 219 219 273 269 495
454 52 44 113 95 134 113 21 18 51 41 65 50 14 10 46 34 71 53 25 19 61 46 80
60 19 14 49 35 66 47 42 30 354 240 376 253 9 6 48 29 85 51 37 23 86 52 108
64 22 12 54 30 70 40 131 80 562 293 735 364 36 15 74 31 85 36 43 20 142 58
180 70 22 7 45 16 50 20 9 7 429 148 458 154 7 2 19 6 27 9 8 3 46 13 84 22
38 9 80 21 93 26 13 5 34 11 46 13 12 2 63 14 112 25 207 49 218 52 410 87 22
4 45 8 52 10 6 1 29 5 50 8 21 3 49 8 63 10 14 2 46 7 71 10 25 4 57 8 70 11
13 2 49 6 79 9 30 4 66 8 80 10 14 3 61 8 105 11 44 4 94 9 110 10 17 2 89 6
160 10 72 4 132 9 134 11 5 5 694 -4 766 -10z"/>
<path d="M11120 18144 c-72 -5 -386 -34 -425 -39 -16 -2 -66 -9 -110 -15 -715
-100 -1388 -308 -2035 -631 -668 -333 -1226 -735 -1753 -1263 -705 -707 -1228
-1532 -1564 -2466 -200 -556 -327 -1164 -370 -1765 -10 -137 -10 -772 -1 -920
17 -255 63 -599 117 -867 405 -1995 1726 -3716 3551 -4627 400 -199 745 -334
1168 -455 397 -114 847 -194 1302 -231 161 -13 918 -14 1000 -1 19 3 91 10
160 16 439 39 945 147 1450 310 393 127 913 368 1310 608 1067 644 1932 1569
2496 2667 369 719 577 1394 690 2235 27 207 36 372 39 730 4 431 -1 536 -41
869 -227 1906 -1283 3627 -2899 4723 -341 231 -784 468 -1175 630 -604 250
-1299 421 -1930 473 -41 4 -86 9 -100 12 -29 6 -799 12 -880 7z m-378 -3329
c42 -9 111 -34 162 -60 l89 -45 62 25 c34 13 89 32 121 41 81 22 249 30 326
14 81 -15 193 -62 253 -105 l48 -33 47 29 c27 16 81 42 122 57 66 24 86 27
213 27 128 0 147 -3 220 -28 75 -27 176 -74 271 -128 l40 -22 45 30 c62 43
153 87 229 112 118 39 291 27 400 -29 57 -29 152 -105 188 -149 l33 -41 -49
-113 c-72 -163 -193 -447 -362 -852 -35 -82 -132 -312 -216 -510 -112 -262
-150 -361 -141 -367 6 -4 53 -8 102 -9 50 0 97 -2 105 -3 8 -2 98 -6 200 -10
102 -4 212 -9 245 -11 33 -2 116 -7 185 -10 68 -4 126 -8 128 -9 1 -2 -34 -27
-80 -57 -89 -59 -178 -139 -178 -162 0 -8 9 -22 21 -33 18 -16 38 -19 138 -21
64 0 152 3 196 7 44 4 107 11 140 14 125 12 390 17 404 8 11 -8 5 -20 -32 -63
-57 -65 -107 -157 -107 -195 1 -34 15 -55 50 -75 39 -22 236 -15 465 15 297
40 455 46 455 17 0 -5 -35 -51 -77 -102 -146 -176 -186 -255 -148 -292 28 -29
94 -27 515 9 30 2 80 7 110 9 30 3 132 8 225 11 l170 6 -93 -92 c-97 -96 -125
-137 -120 -173 8 -54 127 -61 368 -22 309 50 422 65 496 65 40 0 74 -3 74 -8
0 -4 -31 -38 -69 -76 -77 -77 -116 -143 -107 -182 28 -110 453 -49 1161 165
l129 39 -289 -287 c-409 -405 -699 -668 -1035 -938 -766 -614 -1471 -972
-2085 -1058 -60 -9 -126 -18 -145 -21 -65 -9 -396 -5 -486 6 -274 34 -524 110
-784 240 -173 86 -336 186 -468 287 -24 18 -48 31 -52 28 -5 -3 -32 -47 -61
-98 -99 -177 -233 -381 -328 -502 -99 -125 -311 -314 -442 -393 -31 -19 -50
-51 -154 -267 -65 -135 -122 -245 -125 -245 -3 0 -23 42 -44 93 -22 50 -67
160 -102 242 l-63 150 -88 45 c-106 55 -163 97 -267 198 -164 160 -305 365
-443 643 -35 71 -66 129 -70 129 -3 0 -40 -31 -82 -68 -639 -570 -1389 -675
-2291 -321 -725 284 -1588 909 -2620 1899 -118 113 -234 223 -258 245 -23 21
-40 40 -38 42 2 2 103 -19 226 -47 631 -145 974 -192 1083 -151 70 27 3 112
-192 241 l-113 75 32 13 c79 32 257 12 590 -65 364 -85 423 -94 487 -77 59 16
25 90 -102 223 -54 56 -95 104 -92 107 12 12 125 12 202 -1 44 -7 166 -32 270
-55 124 -27 227 -43 295 -47 102 -5 107 -5 134 19 54 46 34 127 -68 280 -31
45 -69 98 -84 117 l-27 34 75 -7 c66 -6 138 -16 405 -57 119 -17 296 -23 343
-10 122 34 107 127 -51 312 -58 68 -67 82 -44 74 14 -5 702 -91 832 -104 122
-12 294 -8 323 7 12 7 22 21 22 30 0 37 -120 130 -288 221 -82 46 -93 61 -43
61 16 0 122 13 237 29 388 55 584 81 608 81 14 0 27 3 29 8 3 4 -9 36 -27 72
-17 36 -53 115 -80 175 -43 97 -194 434 -263 585 -14 30 -54 120 -90 200 -36
80 -78 174 -95 210 -17 36 -45 99 -63 140 -18 41 -48 109 -68 150 -75 161 -80
178 -74 228 13 114 60 187 144 228 47 23 68 27 141 27 123 0 226 -25 453 -113
l56 -22 54 37 c153 108 306 144 471 110z"/>
<path d="M3890 17748 c-58 -72 -120 -149 -137 -172 -79 -100 -260 -323 -305
-375 -21 -24 -38 -47 -38 -52 0 -4 17 -21 39 -36 44 -32 183 -144 191 -153 4
-5 242 -198 334 -270 11 -8 35 -29 55 -46 68 -57 368 -300 473 -380 29 -23 61
-51 72 -62 10 -12 23 -19 27 -16 9 5 85 97 154 185 44 56 264 328 300 370 149
177 143 168 114 191 -34 27 -83 67 -163 132 -38 31 -72 56 -76 56 -5 0 -31
-28 -58 -62 -28 -35 -83 -104 -124 -154 -40 -50 -92 -114 -115 -142 l-41 -51
-101 81 c-56 44 -101 84 -101 88 0 4 8 16 18 27 9 11 51 62 92 112 41 51 103
127 138 169 34 41 62 78 62 81 -1 12 -245 199 -255 195 -9 -4 -83 -93 -155
-187 -64 -84 -152 -187 -159 -187 -7 0 -98 70 -173 134 l-37 32 87 106 c48 58
110 134 137 169 28 34 64 79 82 99 l32 37 -91 74 c-50 41 -108 89 -129 107
-20 17 -38 32 -40 32 -2 -1 -51 -60 -109 -132z"/>
<path d="M19029 17767 c-49 -44 -127 -108 -160 -132 -15 -11 -82 -65 -149
-120 -67 -55 -137 -111 -155 -125 -36 -27 -84 -66 -215 -175 -47 -39 -97 -80
-111 -90 -34 -26 -330 -264 -347 -280 -11 -10 1 -30 63 -106 42 -52 101 -125
131 -162 l55 -68 38 28 c21 15 57 45 82 65 24 21 74 61 110 90 85 69 280 226
395 319 50 41 146 119 215 174 68 56 135 110 148 120 13 11 43 36 66 55 23 19
51 42 61 50 11 8 33 27 50 41 l31 25 -104 129 c-108 133 -160 195 -165 195 -2
0 -19 -15 -39 -33z"/>
<path d="M19362 16854 c-71 -19 -165 -70 -221 -121 -130 -116 -144 -256 -56
-558 49 -168 43 -234 -28 -288 -120 -90 -275 14 -305 206 -5 30 -8 63 -6 73 1
11 5 44 8 74 5 48 11 86 19 122 3 16 -339 6 -355 -10 -14 -14 -18 -217 -6
-282 29 -160 102 -296 226 -418 133 -132 297 -185 464 -151 60 12 218 84 218
99 0 6 6 10 14 10 23 0 112 105 143 168 39 80 37 192 -7 347 -17 61 -38 133
-46 160 -7 28 -14 73 -14 101 0 43 5 56 29 82 70 73 184 40 242 -72 33 -63 41
-94 48 -196 l6 -96 155 26 155 25 0 40 c1 99 -33 230 -86 336 -129 259 -364
386 -597 323z"/>
<path d="M3210 16519 c-61 -9 -151 -53 -203 -99 -77 -68 -136 -168 -348 -587
-46 -90 -81 -165 -78 -167 5 -4 291 -151 744 -381 171 -87 379 -193 463 -237
85 -44 155 -78 157 -76 2 2 160 311 173 339 1 3 -111 63 -250 133 -247 125
-294 152 -266 153 60 1 346 16 359 18 9 2 83 6 165 10 82 4 152 10 156 14 8 8
208 397 208 405 0 7 -59 3 -185 -14 -38 -5 -88 -12 -110 -14 -59 -8 -284 -36
-330 -41 -22 -3 -57 -8 -77 -11 l-38 -6 8 34 c4 18 7 71 7 118 -1 109 -32 184
-108 257 -125 120 -291 177 -447 152z m147 -430 c95 -40 140 -108 128 -194 -6
-50 -73 -205 -88 -205 -8 0 -344 167 -357 177 -8 7 57 125 92 167 64 78 132
95 225 55z"/>
<path d="M20255 15870 c-33 -16 -104 -49 -157 -74 -54 -25 -98 -48 -98 -51 0
-3 20 -47 44 -98 57 -119 97 -209 94 -212 -2 -2 -37 -19 -78 -38 -41 -19 -119
-56 -173 -81 -54 -25 -99 -46 -101 -46 -2 0 -69 -31 -150 -70 -80 -38 -147
-70 -149 -70 -3 0 -65 -29 -138 -64 -74 -35 -164 -77 -201 -94 -38 -17 -68
-34 -68 -38 0 -4 11 -30 24 -58 23 -49 69 -148 122 -264 14 -29 28 -51 32 -49
14 9 244 117 247 117 2 0 70 32 150 70 80 39 148 70 150 70 2 0 65 29 140 65
75 36 137 65 139 65 4 0 214 98 228 107 5 2 13 -9 20 -24 6 -15 35 -79 65
-142 29 -62 53 -117 53 -122 0 -21 27 -19 83 9 118 58 238 112 248 112 5 0 9
2 9 4 0 4 -39 89 -127 276 -22 47 -57 121 -78 165 -20 44 -50 107 -65 140 -16
33 -45 96 -65 140 -21 44 -52 112 -70 150 -18 39 -39 85 -46 103 -8 17 -16 32
-19 32 -3 -1 -32 -14 -65 -30z"/>
<path d="M2099 14441 c-6 -25 -29 -105 -51 -178 -21 -72 -41 -141 -43 -154 -3
-12 -13 -50 -24 -83 -10 -34 -21 -70 -24 -81 -3 -11 -26 -91 -51 -179 -25 -87
-46 -164 -46 -172 0 -7 12 -16 28 -20 15 -3 54 -14 87 -24 33 -9 96 -28 140
-40 44 -12 107 -30 140 -40 33 -10 96 -28 140 -40 44 -12 107 -31 140 -41 80
-24 173 -50 210 -59 17 -4 84 -23 150 -43 66 -19 129 -37 140 -40 11 -3 74
-21 140 -40 169 -49 156 -49 171 3 6 25 59 209 117 410 57 201 107 377 111
392 3 14 8 33 12 41 3 9 -3 16 -18 20 -13 2 -48 12 -78 20 -30 9 -94 27 -141
41 l-87 24 -47 -166 c-26 -92 -56 -197 -66 -233 -10 -36 -23 -77 -28 -92 l-10
-26 -58 20 c-32 11 -77 24 -99 29 -23 5 -53 14 -67 19 l-25 10 29 103 c16 57
38 133 50 170 11 38 22 76 24 85 2 10 11 41 19 68 9 28 16 51 16 51 1 10 -304
94 -312 86 -6 -6 -47 -143 -84 -277 -35 -128 -52 -186 -57 -192 -3 -3 -39 5
-79 17 -40 12 -82 24 -92 26 -36 7 -86 26 -86 32 0 8 34 130 61 217 38 126 81
286 77 290 -4 4 -188 58 -270 79 l-46 13 -13 -46z"/>
<path d="M20888 14485 c-5 -6 -32 -14 -429 -133 -283 -86 -441 -134 -609 -187
-102 -32 -373 -114 -397 -121 -8 -2 -2 -32 19 -96 16 -51 40 -129 53 -173 42
-142 37 -136 87 -121 40 13 217 67 283 87 17 5 91 27 165 50 169 52 376 115
560 171 19 6 42 13 50 16 8 3 20 6 25 7 12 3 196 60 275 85 52 16 55 19 53 47
-2 17 -19 82 -39 144 -20 63 -43 140 -51 172 -14 50 -29 68 -45 52z"/>
<path d="M19654 13353 c3 -27 8 -57 10 -68 2 -11 7 -47 12 -80 4 -33 8 -62 9
-65 1 -3 5 -37 9 -76 l8 -71 96 -12 c145 -19 166 -22 178 -26 6 -2 14 -23 18
-48 4 -24 9 -55 11 -68 8 -52 16 -107 25 -175 5 -39 16 -118 25 -174 8 -57 15
-110 15 -117 0 -8 -26 -25 -57 -39 -32 -14 -86 -39 -119 -55 -34 -16 -67 -29
-73 -29 -11 0 -11 -7 4 -110 2 -14 7 -50 11 -80 4 -30 8 -57 9 -60 1 -3 4 -34
9 -70 4 -36 11 -71 15 -78 8 -13 96 30 636 308 105 54 321 164 480 245 160 82
298 153 308 159 15 9 18 20 14 61 -11 118 -61 451 -69 461 -4 6 -43 17 -86 24
-42 8 -81 14 -87 15 -5 2 -44 10 -85 18 -41 9 -169 34 -285 56 -115 22 -221
43 -235 45 -56 11 -388 76 -435 86 -142 28 -360 70 -368 70 -6 0 -7 -20 -3
-47z m772 -467 c60 -9 121 -18 135 -21 176 -29 269 -43 428 -61 50 -6 45 -13
-34 -43 -27 -10 -76 -31 -107 -45 -31 -14 -59 -26 -62 -26 -2 0 -69 -31 -148
-69 -181 -87 -280 -132 -284 -128 -5 5 -54 358 -54 389 0 16 3 27 8 25 4 -3
57 -12 118 -21z"/>
<path d="M1756 12948 c-3 -12 -8 -63 -11 -113 -3 -49 -8 -103 -10 -120 -2 -16
-6 -58 -10 -92 -6 -72 -12 -68 120 -78 50 -3 108 -8 130 -10 22 -2 108 -10
191 -16 l151 -13 -4 -50 c-4 -58 -17 -200 -34 -389 l-12 -127 -51 5 c-104 11
-143 14 -226 20 -47 4 -92 8 -100 10 -8 2 -60 7 -116 10 l-101 7 -12 -139 c-7
-76 -16 -168 -20 -205 -7 -64 -6 -68 13 -69 12 0 30 -2 41 -4 11 -2 56 -6 100
-9 44 -3 130 -11 190 -16 140 -13 465 -41 640 -55 39 -3 84 -8 100 -10 17 -2
71 -7 120 -11 50 -3 100 -7 113 -9 13 -2 65 -7 117 -11 l93 -7 7 99 c4 55 9
106 10 114 2 8 6 57 10 108 l7 92 -28 1 c-16 0 -38 2 -49 4 -11 2 -54 7 -95
10 -41 3 -93 8 -115 10 -22 2 -101 9 -175 15 -74 6 -141 13 -149 16 -10 3 -12
20 -7 77 3 39 9 101 12 137 3 36 7 83 9 105 2 22 7 78 11 125 9 119 8 115 35
114 60 -3 207 -15 234 -19 30 -4 89 -9 240 -20 44 -3 90 -8 103 -11 13 -3 22
1 23 8 0 7 2 20 3 28 2 8 6 56 10 105 7 90 13 155 22 231 l4 42 -87 7 c-49 4
-101 8 -118 10 -32 3 -132 12 -225 20 -30 3 -158 14 -285 25 -126 11 -259 23
-295 26 -36 3 -81 7 -100 9 -19 2 -73 7 -120 10 -47 3 -101 8 -120 10 -19 2
-67 7 -107 10 -70 6 -72 6 -77 -17z"/>
<path d="M19856 11568 c-3 -18 -8 -76 -11 -128 -3 -52 -8 -128 -11 -167 l-7
-73 54 -1 c30 0 63 -2 74 -4 11 -2 65 -6 120 -9 101 -6 129 -8 374 -27 73 -5
201 -9 283 -8 82 0 152 -2 155 -5 4 -3 1 -6 -6 -6 -14 0 -130 -45 -206 -81
-27 -12 -81 -43 -120 -69 -38 -25 -114 -72 -167 -104 -54 -32 -103 -65 -109
-72 -6 -8 -16 -14 -21 -14 -5 0 -39 -20 -76 -43 -37 -24 -105 -68 -152 -97
-47 -29 -107 -68 -135 -85 -27 -18 -65 -40 -82 -51 -18 -10 -33 -23 -33 -29 0
-20 -20 -291 -25 -340 -4 -47 -3 -51 18 -52 12 -1 96 -7 187 -13 91 -6 197
-13 235 -16 116 -8 176 -13 265 -19 200 -14 369 -26 425 -30 131 -10 283 -19
340 -19 l60 -1 7 75 c3 41 10 129 13 196 l7 121 -61 2 c-33 1 -68 3 -78 5 -10
2 -74 7 -143 11 -68 4 -131 8 -140 10 -54 10 -434 27 -522 24 -60 -3 -108 -1
-108 2 0 4 17 13 38 19 42 14 68 25 165 69 67 30 111 56 269 159 44 28 82 52
83 52 5 0 277 172 327 207 26 18 50 33 53 33 3 0 116 72 158 101 10 7 12 23
21 169 3 52 9 128 12 168 l6 72 -56 1 c-31 1 -64 2 -73 3 -10 1 -72 6 -138 10
-66 4 -133 9 -150 11 -16 2 -84 6 -150 10 -66 3 -133 8 -150 10 -16 2 -75 6
-130 10 -55 3 -113 8 -130 10 -16 2 -88 7 -160 10 -71 4 -137 9 -145 10 -9 2
-68 6 -132 10 l-117 7 -5 -34z"/>
<path d="M1868 11125 c-2 -2 -48 -5 -102 -9 -55 -3 -100 -7 -102 -9 -2 -2 9
-182 36 -557 16 -214 19 -268 25 -375 3 -55 8 -115 11 -134 l5 -34 123 7 c67
4 131 9 142 11 10 2 36 4 57 4 37 1 38 2 33 29 -3 15 -8 83 -11 152 -4 69 -8
132 -11 142 -3 9 -1 19 3 21 5 3 87 10 183 16 96 7 200 14 230 16 70 6 169 12
290 20 52 3 118 8 145 10 28 3 93 7 145 10 52 3 114 8 138 11 39 5 42 7 38 32
-3 15 -8 81 -12 147 -4 66 -8 131 -9 145 -2 14 -3 40 -4 59 l-1 34 -87 -7
c-49 -3 -117 -9 -153 -11 -36 -3 -135 -10 -220 -15 -85 -6 -180 -13 -210 -15
-30 -2 -98 -7 -150 -10 -52 -3 -120 -8 -150 -10 -30 -3 -87 -7 -127 -10 -39
-3 -74 -2 -76 2 -3 5 -9 60 -13 123 -4 63 -8 126 -9 140 -2 14 -3 35 -4 48 -1
22 -4 23 -76 21 -41 -1 -76 -3 -77 -4z"/>
<path d="M2960 8953 c-63 -16 -104 -50 -131 -108 -32 -70 -23 -132 44 -275 68
-147 78 -170 83 -200 5 -22 2 -31 -10 -36 -20 -8 -63 20 -182 119 -122 101
-189 138 -263 144 -76 7 -125 -10 -172 -60 -46 -47 -63 -93 -62 -167 1 -65 25
-115 72 -147 55 -37 129 -46 306 -38 210 10 234 10 248 -4 17 -17 -12 -41
-157 -124 -148 -85 -204 -127 -236 -177 -47 -71 -34 -172 32 -239 41 -42 72
-57 131 -66 160 -24 242 62 302 315 37 159 44 179 65 190 30 16 44 -16 84
-184 38 -158 80 -254 125 -285 101 -71 265 -42 334 58 35 51 45 112 27 166
-24 74 -99 135 -286 235 -183 97 -187 128 -16 120 59 -3 166 -5 237 -4 115 0
135 3 178 23 67 33 91 70 95 153 5 76 -18 136 -72 186 -53 50 -141 66 -217 41
-38 -13 -136 -78 -219 -145 -117 -95 -158 -118 -180 -104 -11 7 -10 19 5 70
10 33 22 63 27 66 10 6 52 97 85 184 47 123 18 232 -75 279 -50 25 -135 31
-202 14z"/>
<path d="M19840 8853 c-42 -22 -60 -38 -77 -72 -27 -52 -31 -144 -9 -194 26
-61 59 -132 93 -205 42 -88 47 -126 18 -130 -21 -3 -68 30 -202 140 -78 64
-166 114 -219 124 -61 11 -140 -12 -180 -54 -50 -51 -66 -87 -71 -157 -12
-158 111 -227 365 -204 158 14 252 12 258 -6 9 -22 -9 -39 -79 -78 -139 -77
-164 -91 -202 -118 -55 -38 -112 -98 -125 -134 -52 -134 60 -275 220 -275 143
0 200 73 265 337 41 167 58 198 90 163 11 -12 20 -26 21 -33 3 -14 16 -68 49
-202 51 -202 111 -265 247 -265 78 0 131 23 179 77 99 110 68 227 -86 328 -60
39 -174 105 -181 105 -3 0 -30 17 -60 38 -33 22 -54 44 -54 56 0 18 7 19 168
11 207 -10 215 -10 278 -3 132 16 200 87 191 204 -5 68 -16 92 -71 151 -46 49
-113 70 -189 59 -39 -6 -165 -77 -187 -105 -7 -9 -161 -124 -193 -145 -16 -9
-36 -15 -44 -12 -24 10 -11 63 46 178 92 190 105 263 61 354 -31 63 -95 94
-196 94 -57 0 -80 -5 -124 -27z"/>
<path d="M4175 6736 c-183 -42 -376 -165 -497 -315 -58 -73 -143 -231 -152
-281 -2 -14 -9 -44 -14 -66 -16 -68 -14 -234 2 -314 29 -139 110 -277 235
-397 41 -40 78 -73 82 -73 4 0 38 -20 75 -45 36 -25 71 -45 75 -45 5 0 47 30
93 68 117 94 152 122 205 162 49 38 56 52 29 56 -9 1 -34 4 -55 7 -94 14 -184
60 -245 125 -158 169 -152 398 17 568 66 67 136 113 211 139 59 21 168 28 221
14 111 -29 209 -109 263 -216 34 -67 35 -71 35 -190 0 -68 2 -123 5 -123 3 0
23 18 45 40 22 21 43 39 47 40 5 0 18 9 30 19 13 10 69 55 125 100 114 90 107
68 65 197 -27 81 -54 133 -115 222 -52 76 -154 177 -204 202 -15 8 -40 23 -54
33 -14 10 -66 32 -115 49 -77 26 -107 31 -219 34 -88 3 -150 -1 -190 -10z"/>
<path d="M18595 6714 c-91 -14 -266 -84 -294 -118 -8 -9 -19 -16 -26 -16 -16
0 -239 -223 -311 -310 -29 -36 -103 -123 -163 -195 l-110 -130 22 -18 c12 -10
53 -44 91 -75 131 -109 153 -127 177 -146 13 -11 40 -33 61 -50 41 -35 67 -57
393 -327 127 -104 237 -195 245 -202 80 -65 130 -106 156 -130 l31 -28 34 39
c52 58 298 358 323 392 131 181 170 252 208 370 30 98 33 282 4 375 -21 69
-65 163 -98 207 -43 57 -171 188 -185 188 -7 0 -13 3 -13 8 0 23 -189 124
-277 147 -59 16 -214 27 -268 19z m196 -441 c96 -51 218 -171 254 -249 64
-139 12 -312 -147 -488 -25 -28 -28 -29 -45 -15 -36 31 -149 125 -192 159 -24
19 -65 53 -91 75 -26 22 -115 96 -198 164 -137 113 -150 127 -140 145 23 44
174 184 228 211 81 41 98 45 182 41 66 -4 87 -9 149 -43z"/>
<path d="M5045 5781 c-93 -98 -208 -218 -254 -267 -46 -49 -136 -143 -200
-209 -177 -183 -426 -446 -429 -455 -2 -4 25 -34 60 -67 35 -33 101 -96 148
-141 l85 -81 90 97 c50 53 148 157 219 230 l129 132 121 -119 c146 -143 255
-245 267 -249 24 -9 17 -17 -343 -396 l-78 -81 83 -79 c45 -44 112 -108 149
-144 l67 -65 88 94 c48 52 147 155 218 229 72 74 160 166 196 204 88 96 106
115 249 262 219 227 310 324 310 331 0 4 -30 36 -67 71 -38 36 -103 99 -146
141 l-78 76 -86 -90 c-182 -191 -335 -346 -338 -343 -15 14 -230 221 -303 292
-51 49 -91 93 -90 97 2 4 57 63 123 131 66 69 158 164 204 212 l85 89 -55 51
c-30 28 -96 90 -147 139 -51 48 -96 87 -100 87 -4 -1 -83 -81 -177 -179z"/>
<path d="M17505 5524 c-101 -18 -131 -28 -231 -75 -102 -48 -160 -91 -252
-187 -64 -68 -151 -193 -156 -225 -1 -7 -4 -16 -7 -22 -8 -13 -38 -105 -45
-136 -24 -114 -24 -266 0 -369 20 -81 93 -242 129 -281 13 -13 33 -39 46 -57
31 -44 142 -131 216 -169 149 -78 240 -98 409 -90 168 7 307 52 441 142 52 35
173 155 217 215 56 78 120 229 134 320 3 19 8 39 11 43 2 4 4 54 4 110 0 227
-68 392 -226 552 -44 45 -100 95 -125 111 -165 108 -371 151 -565 118z m158
-379 c90 -23 156 -62 228 -134 108 -108 155 -223 147 -361 -6 -102 -48 -189
-124 -259 -130 -119 -285 -141 -453 -64 -67 31 -196 157 -233 229 -46 89 -61
176 -47 268 14 83 47 152 101 208 109 112 238 150 381 113z"/>
<path d="M6310 4907 c-8 -12 -17 -26 -20 -32 -3 -5 -27 -44 -54 -85 -27 -41
-72 -111 -101 -155 -28 -44 -86 -133 -128 -197 -43 -65 -77 -122 -77 -127 0
-4 -7 -15 -16 -22 -9 -7 -20 -22 -25 -34 -13 -27 -30 -54 -57 -92 -39 -55
-129 -245 -140 -298 -24 -112 -22 -194 5 -265 3 -8 7 -20 8 -26 13 -58 173
-240 264 -300 119 -79 155 -99 226 -132 106 -48 188 -67 285 -66 150 2 266 66
390 216 58 70 183 252 294 430 22 35 71 109 108 166 37 57 68 105 68 107 0 1
26 43 58 91 32 49 61 94 65 100 4 7 -35 37 -94 75 -55 35 -132 85 -172 111
-61 39 -74 44 -82 31 -90 -137 -119 -183 -132 -208 -9 -16 -22 -35 -29 -43 -8
-7 -19 -23 -26 -35 -6 -12 -56 -92 -112 -178 -56 -85 -105 -162 -111 -171 -76
-122 -166 -230 -223 -268 -39 -26 -51 -29 -106 -26 -98 6 -192 62 -250 150
-20 30 -26 51 -26 96 0 50 7 73 50 157 27 54 65 122 85 151 19 30 35 56 35 58
0 3 18 31 39 62 61 89 251 382 251 387 0 2 25 41 55 86 65 94 74 75 -80 171
-55 34 -120 76 -145 93 -25 17 -50 34 -55 37 -6 4 -18 -3 -25 -15z"/>
<path d="M16157 4474 c-1 -1 -34 -4 -73 -7 -260 -23 -551 -220 -677 -460 -165
-317 -107 -679 152 -938 105 -105 178 -152 300 -193 231 -79 435 -53 675 84
119 69 208 141 272 223 188 240 203 522 43 842 -76 152 -65 145 -151 95 -40
-23 -88 -51 -107 -62 -19 -11 -127 -75 -240 -142 -113 -68 -225 -133 -249
-146 -23 -13 -41 -26 -40 -29 5 -10 88 -155 101 -176 7 -10 22 -36 35 -57 l22
-38 65 40 c36 22 68 40 70 40 3 0 24 12 48 27 23 15 51 32 62 38 11 6 41 24
67 39 l48 28 11 -29 c31 -77 6 -208 -54 -288 -43 -57 -68 -79 -129 -118 -102
-64 -125 -71 -228 -72 -124 0 -184 26 -279 122 -150 152 -222 361 -177 514 61
208 298 336 502 271 l61 -19 79 116 c43 64 83 123 89 132 5 8 20 31 32 49 l22
33 -23 13 c-54 27 -157 54 -239 62 -48 4 -89 7 -90 6z"/>
<path d="M7583 4053 c-19 -43 -60 -129 -89 -192 -30 -62 -54 -115 -54 -118 0
-2 -27 -61 -60 -130 -33 -69 -60 -127 -60 -129 0 -2 -23 -52 -51 -111 -28 -60
-62 -133 -76 -163 -14 -30 -45 -98 -69 -150 -25 -52 -69 -147 -98 -210 l-53
-115 36 -17 c41 -20 191 -89 267 -123 l50 -22 14 31 c20 45 77 171 115 251 19
39 54 115 79 170 25 55 46 98 47 95 6 -32 10 -71 24 -225 8 -99 17 -196 20
-215 2 -19 6 -64 10 -100 14 -158 14 -157 48 -171 18 -6 74 -32 125 -55 51
-24 95 -44 97 -44 2 0 37 -16 78 -35 41 -19 78 -35 82 -35 8 0 3 43 -40 300
-18 113 -36 223 -40 245 -3 22 -10 67 -15 100 -6 33 -10 65 -10 70 0 6 43 10
108 10 101 0 111 2 174 33 172 84 289 323 257 524 -17 104 -94 217 -194 283
-47 31 -305 165 -319 165 -3 0 -44 18 -93 41 -97 45 -264 119 -270 119 -2 0
-20 -35 -40 -77z m415 -448 c57 -33 95 -103 90 -164 -4 -55 -52 -145 -94 -177
-53 -41 -131 -39 -234 5 -41 18 -78 36 -83 40 -7 7 16 62 120 282 l45 96 69
-36 c39 -20 78 -40 87 -46z"/>
<path d="M14495 3703 c-11 -2 -108 -33 -215 -68 -107 -35 -211 -68 -230 -73
-46 -13 -414 -133 -418 -137 -2 -2 13 -54 33 -117 20 -62 38 -120 40 -128 4
-19 64 -218 116 -382 22 -70 58 -187 80 -260 23 -73 54 -175 71 -226 16 -51
31 -99 32 -106 1 -7 17 -63 36 -125 24 -77 40 -111 50 -111 8 0 53 13 100 28
47 16 127 42 178 57 90 28 93 30 87 55 -4 14 -9 34 -11 44 -2 11 -19 67 -38
125 -65 201 -105 336 -108 359 -2 19 4 26 32 37 35 14 321 106 395 127 22 6
41 13 43 14 2 1 -15 62 -38 136 -23 73 -45 142 -48 154 l-7 21 -70 -22 c-38
-12 -142 -46 -231 -74 -89 -28 -166 -51 -172 -51 -11 0 -38 73 -70 191 l-18
66 45 12 c47 12 453 143 460 148 2 2 -13 58 -33 125 -21 68 -42 138 -48 156
-5 17 -13 31 -16 31 -4 -1 -16 -3 -27 -6z"/>
<path d="M9090 3470 c-66 -17 -73 -19 -145 -50 -118 -50 -282 -195 -347 -306
-154 -264 -175 -575 -55 -819 29 -60 120 -187 154 -215 102 -85 158 -117 281
-158 107 -36 183 -48 301 -45 153 3 139 -9 190 161 24 81 52 174 62 206 10 33
19 63 19 67 0 4 -31 -9 -70 -28 -215 -107 -457 -36 -558 164 -85 167 -44 384
100 538 81 87 153 119 268 120 99 0 135 -7 198 -40 69 -35 174 -148 208 -225
l11 -25 8 30 c4 17 22 77 40 135 18 58 45 142 58 188 l26 84 -36 31 c-93 82
-241 159 -354 183 -136 29 -257 30 -359 4z"/>
<path d="M10000 3311 c0 -7 -43 -319 -55 -396 -2 -16 -9 -68 -15 -114 -6 -47
-13 -87 -14 -90 -2 -3 -7 -37 -10 -76 -4 -38 -9 -77 -11 -85 -4 -17 -9 -46
-25 -170 -6 -47 -13 -96 -15 -110 -2 -14 -9 -63 -15 -110 -6 -47 -13 -96 -15
-109 -2 -13 -7 -45 -11 -70 -3 -25 -7 -57 -10 -70 -2 -13 -6 -43 -10 -67 l-6
-42 58 -7 c33 -4 68 -9 78 -11 59 -11 268 -35 272 -31 3 3 62 399 79 532 10
86 12 88 59 81 22 -3 75 -10 116 -16 41 -5 143 -18 227 -29 83 -10 156 -22
161 -25 5 -3 2 -53 -8 -123 -10 -65 -20 -138 -23 -163 -3 -25 -12 -90 -21
-145 -8 -55 -17 -120 -20 -145 l-6 -45 200 -25 c123 -14 204 -20 209 -14 5 5
12 37 15 71 4 35 8 68 11 75 2 7 6 37 10 67 3 30 8 64 10 75 2 12 7 44 10 71
7 62 84 611 90 645 2 14 7 48 10 75 3 28 8 57 10 65 2 8 6 40 10 71 3 31 8 67
10 79 2 12 7 48 11 79 3 31 9 73 14 94 9 42 6 45 -41 52 -65 9 -344 45 -355
45 -6 0 -20 -65 -33 -162 -13 -90 -24 -174 -26 -187 -3 -13 -7 -45 -10 -70 -3
-25 -11 -74 -17 -109 l-11 -64 -61 7 c-33 4 -68 9 -76 10 -8 1 -44 6 -80 10
-36 4 -72 9 -81 10 -9 2 -40 6 -70 10 -30 3 -81 10 -114 16 -33 5 -63 9 -68 9
-4 0 -5 12 -3 28 3 15 8 50 11 77 4 28 20 142 36 254 16 112 29 212 29 220 0
11 -10 17 -27 19 -14 1 -94 11 -177 22 -167 22 -206 24 -206 11z"/>
<path d="M12785 3303 c-146 -24 -286 -85 -395 -172 -126 -100 -226 -247 -275
-401 -34 -105 -43 -285 -20 -391 61 -283 256 -502 530 -592 106 -35 180 -45
295 -41 369 12 696 274 780 626 50 208 8 443 -112 633 -34 54 -142 163 -201
204 -177 121 -393 169 -602 134z m245 -364 c84 -29 182 -121 223 -209 93 -196
67 -417 -66 -554 -86 -87 -194 -129 -315 -120 -75 5 -116 19 -181 62 -193 128
-257 455 -128 659 29 45 103 119 140 138 101 52 221 61 327 24z"/>
</g>
</svg>
